<?xml version="1.0" encoding="utf-8"?>
<!-- Generator: Adobe Illustrator 19.1.0, SVG Export Plug-In . SVG Version: 6.00 Build 0)  -->
<!DOCTYPE svg PUBLIC "-//W3C//DTD SVG 1.1//EN" "http://www.w3.org/Graphics/SVG/1.1/DTD/svg11.dtd">
<svg version="1.1" id="Layer_1" xmlns="http://www.w3.org/2000/svg" xmlns:xlink="http://www.w3.org/1999/xlink" x="0px" y="0px"
	 viewBox="-349 151 100 100" style="enable-background:new -349 151 100 100;" xml:space="preserve">
<style type="text/css">
	.st0{fill:#280;}
</style>
<g>
	<g>
		<g>
			<g>
				<path class="st0" d="M-267.2,239.6l-18.5-18.5c-5.1,3.3-11.2,5.3-17.7,5.3c-17.9,0-32.3-14.5-32.3-32.3
					c0-17.8,14.4-32.3,32.3-32.3c17.8,0,32.3,14.5,32.3,32.3c0,6.2-1.8,12-4.8,17l18.7,18.7c1,1,0.2,3.4-1.8,5.3l-2.8,2.8
					C-263.8,239.7-266.2,240.6-267.2,239.6z M-281.8,194c0-11.9-9.7-21.6-21.6-21.6c-11.9,0-21.6,9.7-21.6,21.6s9.7,21.6,21.6,21.6
					C-291.5,215.6-281.8,205.9-281.8,194z"/>
			</g>
		</g>
	</g>
</g>
</svg>
