<svg xmlns="http://www.w3.org/2000/svg" xmlns:xlink="http://www.w3.org/1999/xlink" width="100" height="100" viewBox="0 0 100 100">
  <defs>
    <clipPath id="clip-path">
      <rect id="Rectangle_2562" data-name="Rectangle 2562" width="100" height="100"/>
    </clipPath>
  </defs>
  <g id="APHI-icons-manageaccount" clip-path="url(#clip-path)">
    <path id="Path_3367" data-name="Path 3367" d="M0,0H100V100H0Z" fill="none"/>
    <g id="official-icons_phonecheck" transform="translate(15.152 7.315)">
      <path id="Path_1513" data-name="Path 1513" d="M51.231,69.946V40.286h-5v37.6h5.005v-7.94Z" transform="translate(-41.244 -22.647)" fill="none"/>
      <path id="Path_1514" data-name="Path 1514" d="M55.586,22.085a7.491,7.491,0,0,1,2.563-.689c.212-.018.426-.03.642-.03H82.457v-1.08a2.582,2.582,0,0,0-2.579-2.579H48.8a2.582,2.582,0,0,0-2.579,2.579v5.1h5.892a7.661,7.661,0,0,1,3.469-3.3Z" transform="translate(-41.244 -12.726)" fill="none"/>
      <path id="Path_1515" data-name="Path 1515" d="M46.226,128.371A2.582,2.582,0,0,0,48.8,130.95h2.426V116.238h-5Z" transform="translate(-41.244 -56.018)" fill="none"/>
      <path id="Path_1516" data-name="Path 1516" d="M103.815,119.034a1.361,1.361,0,1,0-.759-1.769,1.361,1.361,0,0,0,.759,1.769Z" transform="translate(-66.172 -56.094)" fill="#80dbf7"/>
      <path id="Path_1517" data-name="Path 1517" d="M100.385,123.945a1.361,1.361,0,1,0,1.769-.759,1.361,1.361,0,0,0-1.769.759Z" transform="translate(-64.998 -59.029)" fill="#80dbf7"/>
      <path id="Path_1518" data-name="Path 1518" d="M97.714,130.624a1.361,1.361,0,1,0,1.769-.758A1.361,1.361,0,0,0,97.714,130.624Z" transform="translate(-63.824 -61.963)" fill="#80dbf7"/>
      <path id="Path_1519" data-name="Path 1519" d="M109.737,120.086a1.357,1.357,0,0,0,.582,1.677v-2.344a1.345,1.345,0,0,0-.582.667Z" transform="translate(-69.107 -57.416)" fill="#80dbf7"/>
      <path id="Path_1520" data-name="Path 1520" d="M107.065,126.616a1.358,1.358,0,0,0,2.08,1.589v-2.166a1.347,1.347,0,0,0-.311-.182A1.361,1.361,0,0,0,107.065,126.616Z" transform="translate(-67.933 -60.202)" fill="#80dbf7"/>
      <path id="Path_1521" data-name="Path 1521" d="M106.163,132.537a1.361,1.361,0,1,0,.759,1.769,1.361,1.361,0,0,0-.759-1.769Z" transform="translate(-66.759 -63.137)" fill="#80dbf7"/>
      <path id="Path_1522" data-name="Path 1522" d="M103.49,139.187a1.361,1.361,0,0,0-1.755,1.8h2.5c0-.011.012-.021.017-.032a1.361,1.361,0,0,0-.759-1.769Z" transform="translate(-65.585 -66.059)" fill="#80dbf7"/>
      <path id="Path_1523" data-name="Path 1523" d="M64.779,139.187a1.361,1.361,0,0,0-1.755,1.8h2.5a.358.358,0,0,0,.017-.034,1.361,1.361,0,0,0-.759-1.769Z" transform="translate(-48.576 -66.059)" fill="#80dbf7"/>
      <path id="Path_1524" data-name="Path 1524" d="M58.877,137.33h-.006a1.341,1.341,0,0,0-1.246-.857h0a1.359,1.359,0,0,0-1.264.854h0a1.355,1.355,0,0,0,1.27,1.844h0a1.355,1.355,0,0,0,1.251-1.845Z" transform="translate(-45.655 -64.909)" fill="#80dbf7"/>
      <path id="Path_1525" data-name="Path 1525" d="M71.767,141.86a1.362,1.362,0,0,0-1.472.3h1.932a1.352,1.352,0,0,0-.46-.3Z" transform="translate(-51.82 -67.233)" fill="#80dbf7"/>
      <path id="Path_1526" data-name="Path 1526" d="M81.567,139.633a1.357,1.357,0,0,0-.679-1.728h-.03c-.017-.007-.031-.019-.049-.025a1.355,1.355,0,0,0-1.065.025h-.031a1.357,1.357,0,0,0,.084,2.486c.028.011.057.015.085.025h.84a1.354,1.354,0,0,0,.844-.783Z" transform="translate(-55.619 -65.485)" fill="#80dbf7"/>
      <path id="Path_1527" data-name="Path 1527" d="M87.5,140.522a1.361,1.361,0,0,0-1.769.759,1.322,1.322,0,0,0-.078.3h2.682a1.356,1.356,0,0,0-.835-1.059Z" transform="translate(-58.569 -66.646)" fill="#80dbf7"/>
      <path id="Path_1528" data-name="Path 1528" d="M89.151,136.383a1.356,1.356,0,0,0,1.391-.238h.02a1.344,1.344,0,0,0,.357-.5,1.361,1.361,0,1,0-2.171.5h.021a1.348,1.348,0,0,0,.381.238Z" transform="translate(-59.729 -63.724)" fill="#80dbf7"/>
      <path id="Path_1529" data-name="Path 1529" d="M55.154,119.379a1.357,1.357,0,0,1,1.983-.575v.014a1.36,1.36,0,0,1,0,2.25v.008a1.355,1.355,0,0,1-1.983-.568v1.844a1.359,1.359,0,0,1,0,2.667v5.93h4.461a1.361,1.361,0,1,1,2.514-.034c-.005.012-.012.022-.017.034h1.532a1.36,1.36,0,0,1,1.932,0h3.857c-.028-.009-.057-.013-.085-.025a1.357,1.357,0,0,1-.084-2.486H69.3a1.355,1.355,0,0,1,1.065-.025c.017.007.031.018.049.025h.03a1.351,1.351,0,0,1-.165,2.51h1.982a1.384,1.384,0,0,1,.078-.3,1.357,1.357,0,0,1,2.6.3h6.382a1.361,1.361,0,1,1,2.514-.034c0,.011-.012.021-.017.032a2.582,2.582,0,0,0,2.566-2.577v-4.35a1.371,1.371,0,1,1,0-2.166v-1.49a1.349,1.349,0,0,1,0-2.344v-1.783h-5.45a1.347,1.347,0,0,1-.092.465,1.361,1.361,0,0,1-1.769.759,1.382,1.382,0,0,1-.227-.118v-.01a1.362,1.362,0,0,1-.611-1.1H71.76a1.359,1.359,0,1,1-2.421.2,1.393,1.393,0,0,1,.106-.2H67.961a1.354,1.354,0,0,1-2.21,0H59.226a1.347,1.347,0,0,1-.092.465,1.361,1.361,0,0,1-1.769.759,1.381,1.381,0,0,1-.227-.118v-.01a1.362,1.362,0,0,1-.611-1.1H55.155v3.141Zm5.946,6.8a1.359,1.359,0,1,1,.012,1.041,1.361,1.361,0,0,1-.012-1.041Zm-2.716,3.252a1.361,1.361,0,0,1-1.247.855h0a1.355,1.355,0,0,1-1.27-1.844h0a1.36,1.36,0,0,1,1.264-.854h0a1.341,1.341,0,0,1,1.246.857h.006a1.351,1.351,0,0,1,0,.99Zm15.447-2.5a1.361,1.361,0,0,1,2.528,1.011,1.345,1.345,0,0,1-.357.5h-.02a1.332,1.332,0,0,1-1.773,0h-.021a1.358,1.358,0,0,1-.357-1.514Zm5.008.656h0a1.341,1.341,0,0,1,1.246.857h.006a1.355,1.355,0,0,1-1.251,1.845h0a1.355,1.355,0,0,1-1.27-1.844h0a1.36,1.36,0,0,1,1.264-.854Zm6.49-.394a2.434,2.434,0,1,1,0-.006Zm-3.277-10a1.361,1.361,0,1,1,.012,1.04,1.361,1.361,0,0,1-.012-1.04Zm.271,2.986a1.356,1.356,0,1,1-1.042.011,1.361,1.361,0,0,1,1.042-.011Zm-1.5,3.744a1.354,1.354,0,1,1-1.041.01,1.361,1.361,0,0,1,1.041-.01ZM78.6,118.677a1.359,1.359,0,0,1,.244.127v.014a1.36,1.36,0,0,1,0,2.25v.008a1.361,1.361,0,1,1-.244-2.4Zm-1.5,3.744a1.361,1.361,0,1,1-1.769.759,1.361,1.361,0,0,1,1.769-.759Zm-4.016-4.484a1.358,1.358,0,1,1,.012,1.042,1.361,1.361,0,0,1-.012-1.042Zm-8.987.75a1.361,1.361,0,1,1,.759,1.769,1.361,1.361,0,0,1-.759-1.769Zm.272,2.986a1.357,1.357,0,0,1,.445.29,3.89,3.89,0,0,1,3.244-2.132,1.352,1.352,0,0,1,2.387.64,3.9,3.9,0,0,1,1.152,1.193,1.36,1.36,0,1,1,.749,1.788,1.384,1.384,0,0,1-.179-.093c.011.118.018.236.018.356a3.9,3.9,0,0,1-.147,1.048,1.358,1.358,0,0,1-1.19,2.434,1.337,1.337,0,0,1-.39-.246,3.865,3.865,0,0,1-3.19.519,1.356,1.356,0,0,1,.179.969h-.006a1.392,1.392,0,0,1-.066.23,1.36,1.36,0,0,1-2.6-.23h0a1.349,1.349,0,0,1,1.185-1.606,3.885,3.885,0,0,1-1.538-2.657,1.36,1.36,0,1,1-.055-2.5Zm-4.016-4.484a1.361,1.361,0,1,1,.759,1.769,1.361,1.361,0,0,1-.759-1.769Zm.272,2.986a1.361,1.361,0,1,1-1.769.759,1.361,1.361,0,0,1,1.769-.759Zm-1.5,3.744a1.361,1.361,0,1,1-1.769.759,1.361,1.361,0,0,1,1.769-.759Z" transform="translate(-45.167 -56.018)" fill="#fff"/>
      <path id="Path_1530" data-name="Path 1530" d="M58.213,117.334v.01a1.35,1.35,0,0,0,2.088-1.106H57.6a1.361,1.361,0,0,0,.611,1.1Z" transform="translate(-46.243 -56.018)" fill="#80dbf7"/>
      <path id="Path_1531" data-name="Path 1531" d="M55.883,123.041a1.359,1.359,0,0,0,1.255-.129V122.9a1.36,1.36,0,0,0,0-2.25v-.014a1.357,1.357,0,0,0-1.983.575v1.129a1.354,1.354,0,0,0,.729.7Z" transform="translate(-45.167 -57.854)" fill="#80dbf7"/>
      <path id="Path_1532" data-name="Path 1532" d="M56.154,128.984a1.351,1.351,0,0,0-1-1.839v2.667a1.358,1.358,0,0,0,1-.828Z" transform="translate(-45.167 -60.811)" fill="#80dbf7"/>
      <path id="Path_1533" data-name="Path 1533" d="M95.073,137.326h0a1.355,1.355,0,0,0,1.27,1.844h0a1.355,1.355,0,0,0,1.251-1.845h-.006a1.341,1.341,0,0,0-1.246-.857h0a1.359,1.359,0,0,0-1.264.854Z" transform="translate(-62.664 -64.909)" fill="#80dbf7"/>
      <path id="Path_1534" data-name="Path 1534" d="M65.1,119.034a1.361,1.361,0,1,0-.759-1.769,1.361,1.361,0,0,0,.759,1.769Z" transform="translate(-49.163 -56.094)" fill="#80dbf7"/>
      <path id="Path_1535" data-name="Path 1535" d="M61.675,123.945a1.361,1.361,0,1,0,1.769-.759A1.361,1.361,0,0,0,61.675,123.945Z" transform="translate(-47.99 -59.029)" fill="#80dbf7"/>
      <path id="Path_1536" data-name="Path 1536" d="M59,130.624a1.361,1.361,0,1,0,1.769-.758,1.361,1.361,0,0,0-1.769.758Z" transform="translate(-46.816 -61.963)" fill="#80dbf7"/>
      <path id="Path_1537" data-name="Path 1537" d="M74.655,116.712a1.358,1.358,0,0,0,1.61-.474h-2.21a1.349,1.349,0,0,0,.6.474Z" transform="translate(-53.472 -56.018)" fill="#80dbf7"/>
      <path id="Path_1538" data-name="Path 1538" d="M71.784,121.706a1.361,1.361,0,1,0-.759-1.769A1.361,1.361,0,0,0,71.784,121.706Z" transform="translate(-52.098 -57.268)" fill="#80dbf7"/>
      <path id="Path_1539" data-name="Path 1539" d="M68.354,126.616a1.359,1.359,0,0,0,1.824,1.744,3.808,3.808,0,0,1,.39-2.212,1.36,1.36,0,0,0-2.214.469Z" transform="translate(-50.924 -60.202)" fill="#80dbf7"/>
      <path id="Path_1540" data-name="Path 1540" d="M66.441,135.064a1.361,1.361,0,1,0-.759-1.769,1.361,1.361,0,0,0,.759,1.769Z" transform="translate(-49.75 -63.137)" fill="#80dbf7"/>
      <path id="Path_1541" data-name="Path 1541" d="M81.135,118.21a1.358,1.358,0,0,0,1.663-1.972H80.483a1.39,1.39,0,0,0-.106.2,1.361,1.361,0,0,0,.759,1.769Z" transform="translate(-56.207 -56.018)" fill="#80dbf7"/>
      <path id="Path_1542" data-name="Path 1542" d="M80.554,122.9a1.352,1.352,0,0,0-2.387-.64c.077,0,.153-.012.231-.012a3.875,3.875,0,0,1,2.155.651Z" transform="translate(-55.279 -58.442)" fill="#80dbf7"/>
      <path id="Path_1543" data-name="Path 1543" d="M72.364,135.978a1.354,1.354,0,0,0-.07.765h0a1.36,1.36,0,0,0,2.6.23,1.377,1.377,0,0,0,.066-.23h.006a1.353,1.353,0,0,0-.179-.969,3.874,3.874,0,0,1-1.3-.637,1.355,1.355,0,0,0-1.115.841Z" transform="translate(-52.687 -64.322)" fill="#80dbf7"/>
      <path id="Path_1544" data-name="Path 1544" d="M87.814,120.369a1.361,1.361,0,1,0-.759-1.769,1.361,1.361,0,0,0,.759,1.769Z" transform="translate(-59.141 -56.68)" fill="#80dbf7"/>
      <path id="Path_1545" data-name="Path 1545" d="M85.227,127.048a1.361,1.361,0,1,0-.749-1.788,3.865,3.865,0,0,1,.57,1.694,1.315,1.315,0,0,0,.179.093Z" transform="translate(-58.052 -59.615)" fill="#80dbf7"/>
      <path id="Path_1546" data-name="Path 1546" d="M82.446,133.632a1.356,1.356,0,1,0,1.58-2.188A3.9,3.9,0,0,1,82.446,133.632Z" transform="translate(-57.159 -62.7)" fill="#80dbf7"/>
      <path id="Path_1547" data-name="Path 1547" d="M96.923,117.334v.01a1.35,1.35,0,0,0,2.088-1.106h-2.7a1.361,1.361,0,0,0,.611,1.1Z" transform="translate(-63.251 -56.018)" fill="#80dbf7"/>
      <path id="Path_1548" data-name="Path 1548" d="M93.735,121.271a1.36,1.36,0,0,0,2.013,1.64V122.9a1.36,1.36,0,0,0,0-2.25v-.014a1.362,1.362,0,0,0-2.013.631Z" transform="translate(-62.076 -57.854)" fill="#80dbf7"/>
      <path id="Path_1549" data-name="Path 1549" d="M91.063,127.951a1.361,1.361,0,1,0,1.769-.759,1.361,1.361,0,0,0-1.769.759Z" transform="translate(-60.902 -60.789)" fill="#80dbf7"/>
      <path id="Path_1550" data-name="Path 1550" d="M84.811,25.386a1.361,1.361,0,1,1-2.528-1.011,1.345,1.345,0,0,1,.073-.141H80.865a1.361,1.361,0,0,1-1.046.52h0a1.361,1.361,0,0,1-.506-.1,1.346,1.346,0,0,1-.558-.423H72.182a1.355,1.355,0,0,1-2.7,0H63.7c-.217,0-.431.012-.642.03a1.357,1.357,0,1,1-2.563.689,7.6,7.6,0,0,0-2.534,1.935,1.35,1.35,0,0,1-.57,1.364h1.661c.013-.044.021-.088.038-.132a1.356,1.356,0,0,1,2.567.131h6.382a1.359,1.359,0,1,1,2.6,0h1.673a1.36,1.36,0,0,1,1.275-.142,1.321,1.321,0,0,1,.262.142h3.711a1.359,1.359,0,1,1,1.53,0h1.661c.013-.044.021-.088.038-.132a1.356,1.356,0,0,1,2.567.131h4.007V27.73a1.357,1.357,0,1,1,0-2.71v-.79h-2.63a1.352,1.352,0,0,1,.073,1.152Zm-17.957,1.5a1.361,1.361,0,1,1-.759-1.769,1.361,1.361,0,0,1,.759,1.769Zm6.459-1.76a1.359,1.359,0,1,1,.012,1.041,1.361,1.361,0,0,1-.012-1.041Z" transform="translate(-46.148 -15.594)" fill="#fff"/>
      <path id="Path_1551" data-name="Path 1551" d="M102.478,26.144a1.356,1.356,0,0,0,1.7-1.911H101.8a1.345,1.345,0,0,0-.073.141,1.361,1.361,0,0,0,.759,1.769Z" transform="translate(-65.585 -15.593)" fill="#80dbf7"/>
      <path id="Path_1552" data-name="Path 1552" d="M100.865,29.735a1.361,1.361,0,0,0-1.769.759,1.218,1.218,0,0,0-.038.132h2.6a1.353,1.353,0,0,0-.8-.89Z" transform="translate(-64.458 -17.968)" fill="#80dbf7"/>
      <path id="Path_1553" data-name="Path 1553" d="M108.4,26.491a1.355,1.355,0,0,0,1.332,1.862v-2.71a1.356,1.356,0,0,0-1.332.848Z" transform="translate(-68.519 -16.212)" fill="#80dbf7"/>
      <path id="Path_1554" data-name="Path 1554" d="M63.772,26.167a1.356,1.356,0,0,0,1.713-1.88,7.491,7.491,0,0,0-2.563.689,1.359,1.359,0,0,0,.85,1.191Z" transform="translate(-48.58 -15.617)" fill="#80dbf7"/>
      <path id="Path_1555" data-name="Path 1555" d="M96.064,24.657a1.359,1.359,0,0,0,.506.1h0a1.358,1.358,0,0,0,1.046-.52h-2.11a1.349,1.349,0,0,0,.558.423Z" transform="translate(-62.897 -15.593)" fill="#80dbf7"/>
      <path id="Path_1556" data-name="Path 1556" d="M62.155,29.735a1.361,1.361,0,0,0-1.769.759,1.215,1.215,0,0,0-.038.132h2.6a1.353,1.353,0,0,0-.8-.89Z" transform="translate(-47.449 -17.968)" fill="#80dbf7"/>
      <path id="Path_1557" data-name="Path 1557" d="M71.458,25.727a1.361,1.361,0,1,0,.759,1.769,1.361,1.361,0,0,0-.759-1.769Z" transform="translate(-51.51 -16.207)" fill="#80dbf7"/>
      <path id="Path_1558" data-name="Path 1558" d="M79.805,25.394a1.361,1.361,0,0,0,1.769-.759,1.346,1.346,0,0,0,.087-.4h-2.7a1.357,1.357,0,0,0,.847,1.161Z" transform="translate(-55.626 -15.593)" fill="#80dbf7"/>
      <path id="Path_1559" data-name="Path 1559" d="M78.14,28.4a1.361,1.361,0,0,0-1.769.759,1.347,1.347,0,0,0-.039.881h2.6A1.357,1.357,0,0,0,78.14,28.4Z" transform="translate(-54.448 -17.381)" fill="#80dbf7"/>
      <path id="Path_1560" data-name="Path 1560" d="M86.477,26.918a1.361,1.361,0,1,0-.759-1.769,1.361,1.361,0,0,0,.759,1.769Z" transform="translate(-58.554 -15.62)" fill="#80dbf7"/>
      <path id="Path_1561" data-name="Path 1561" d="M84.006,31.211h1.537a1.381,1.381,0,0,0-.262-.142,1.357,1.357,0,0,0-1.275.142Z" transform="translate(-57.844 -18.554)" fill="#80dbf7"/>
      <path id="Path_1562" data-name="Path 1562" d="M94.927,28.831a1.361,1.361,0,1,0-2.028.619H94.43a1.355,1.355,0,0,0,.5-.619Z" transform="translate(-61.489 -16.793)" fill="#80dbf7"/>
      <path id="Path_1563" data-name="Path 1563" d="M57.6,29.711a1.35,1.35,0,0,0,.072-.745,7.584,7.584,0,0,0-.935,1.364H57.1A1.355,1.355,0,0,0,57.6,29.711Z" transform="translate(-45.861 -17.673)" fill="#80dbf7"/>
      <path id="Path_1564" data-name="Path 1564" d="M103.815,42.183a1.356,1.356,0,0,0,1.7-1.9h-2.394c-.022.043-.049.083-.067.128a1.361,1.361,0,0,0,.759,1.769Z" transform="translate(-66.172 -22.646)" fill="#80dbf7"/>
      <path id="Path_1565" data-name="Path 1565" d="M101.144,48.293a1.361,1.361,0,1,0-.759-1.769,1.361,1.361,0,0,0,.759,1.769Z" transform="translate(-64.998 -25.011)" fill="#80dbf7"/>
      <path id="Path_1566" data-name="Path 1566" d="M100.713,52.459a1.372,1.372,0,0,0-.3-.079,2.482,2.482,0,0,1,.784.581l.29.32a1.351,1.351,0,0,0-.774-.822Z" transform="translate(-65.054 -27.961)" fill="#80dbf7"/>
      <path id="Path_1567" data-name="Path 1567" d="M109.737,42.665a1.357,1.357,0,0,0,.582,1.677V42A1.345,1.345,0,0,0,109.737,42.665Z" transform="translate(-69.107 -23.399)" fill="#80dbf7"/>
      <path id="Path_1568" data-name="Path 1568" d="M107.065,49.195a1.358,1.358,0,0,0,2.08,1.589V48.618a1.343,1.343,0,0,0-2.08.577Z" transform="translate(-67.933 -26.185)" fill="#80dbf7"/>
      <path id="Path_1569" data-name="Path 1569" d="M107.026,56.886a1.358,1.358,0,0,0-2.491-1.08l1.679,1.853a1.353,1.353,0,0,0,.812-.773Z" transform="translate(-66.864 -29.12)" fill="#80dbf7"/>
      <path id="Path_1570" data-name="Path 1570" d="M85.7,59.907a1.357,1.357,0,0,1-1.821-2.01l-4.229-4.67a1.364,1.364,0,0,1-.806.283h0a1.355,1.355,0,0,1-1.27-1.844h0a1.36,1.36,0,0,1,.27-.42L77.624,51a2.479,2.479,0,0,1-.281-2.944,1.359,1.359,0,1,1,.517-.631c0,.007-.007.013-.01.02a2.487,2.487,0,0,1,2.682-.369,1.33,1.33,0,0,1,1.074.9l1.236,1.365a1.358,1.358,0,1,1,1.678,1.853l1.864,2.057v-6a1.371,1.371,0,1,1,0-2.166v-1.49a1.349,1.349,0,0,1,0-2.344v-.96H84.515a1.359,1.359,0,1,1-2.462.129,1.271,1.271,0,0,1,.067-.128h-1.5a1.356,1.356,0,0,1-1.55.4,1.382,1.382,0,0,1-.227-.118v-.01a1.339,1.339,0,0,1-.295-.272h-6.6a1.341,1.341,0,0,1-.086.39,1.357,1.357,0,0,1-2.615-.39H62.812a1.359,1.359,0,1,1-2.462.129,1.265,1.265,0,0,1,.067-.128h-1.5a1.356,1.356,0,0,1-1.55.4,1.382,1.382,0,0,1-.227-.118v-.01a1.339,1.339,0,0,1-.3-.272H55.154v2.318a1.357,1.357,0,0,1,1.983-.575v.014a1.36,1.36,0,0,1,0,2.249v0a1.355,1.355,0,0,1-1.983-.568v1.844a1.359,1.359,0,0,1,0,2.667v6.37a1.359,1.359,0,1,1,0,2.537v1.574a1.336,1.336,0,0,1,0,1.8V64.3a1.357,1.357,0,0,1,1.983-.575v.014a1.36,1.36,0,0,1,0,2.25V66a1.355,1.355,0,0,1-1.983-.568v1.844a1.359,1.359,0,0,1,0,2.667v6.37a1.353,1.353,0,0,1,1.807,1.569h1.772a1.351,1.351,0,0,1,1.14-.066,1.386,1.386,0,0,1,.127.066h3.753a1.367,1.367,0,1,1,1.714,0h1.607c.007-.019.009-.039.016-.057a1.356,1.356,0,0,1,2.543.057h6.382a1.359,1.359,0,1,1,2.648,0h1.772a1.351,1.351,0,0,1,1.14-.066,1.386,1.386,0,0,1,.127.066h3.753a1.353,1.353,0,0,1,.925-2.4V68.95a1.371,1.371,0,1,1,0-2.166V65.3a1.349,1.349,0,0,1,.022-2.36c0-.765.01-1.578.015-2.227l-.04-.045-.685-.756ZM82.324,43.4a1.361,1.361,0,1,1-1.769.759,1.361,1.361,0,0,1,1.769-.759ZM78.6,41.9a1.359,1.359,0,0,1,.244.127v.014a1.36,1.36,0,0,1,0,2.249v.01a1.361,1.361,0,1,1-.244-2.4Zm1.21,14.972a1.361,1.361,0,1,1,.759,1.769,1.361,1.361,0,0,1-.759-1.769Zm3.277,10a1.361,1.361,0,1,1-.759-1.769,1.361,1.361,0,0,1,.759,1.769ZM62.869,48.643A1.361,1.361,0,1,1,61.1,49.4a1.361,1.361,0,0,1,1.769-.757ZM64.844,50.9a1.36,1.36,0,0,1,2.6.764h-2.67a1.354,1.354,0,0,1,.07-.765Zm8.987-.75a1.361,1.361,0,1,1,2.528,1.011,1.344,1.344,0,0,1-.357.5H74.188a1.358,1.358,0,0,1-.357-1.514Zm6.246,9.711a1.361,1.361,0,0,1-1.011,2.528,1.383,1.383,0,0,1-.227-.118v-.01a1.359,1.359,0,0,1,0-2.272V59.98a1.357,1.357,0,0,1,1.238-.12Zm.01,14.5a1.361,1.361,0,0,1-1.247.855h0a1.355,1.355,0,0,1-1.27-1.844h2.52a1.351,1.351,0,0,1,0,.988Zm-21.7,0a1.361,1.361,0,0,1-1.247.855h0a1.355,1.355,0,0,1-1.27-1.844h2.521a1.351,1.351,0,0,1-.007.988ZM57.14,72.508h0a1.341,1.341,0,0,1,1.246.857h-2.51a1.36,1.36,0,0,1,1.264-.854Zm0-19h0a1.355,1.355,0,0,1-1.27-1.844h2.521a1.355,1.355,0,0,1-1.251,1.845Zm0-2.7h0a1.341,1.341,0,0,1,1.246.857h-2.51a1.36,1.36,0,0,1,1.261-.859Zm13.269.858H69.293a1.355,1.355,0,0,1,1.065-.025.305.305,0,0,1,.049.023Zm.03,0a1.362,1.362,0,1,1-1.174,0Zm-1.577,3.7a1.361,1.361,0,1,1-1.769.759,1.361,1.361,0,0,1,1.769-.759Zm-2.986.272a1.361,1.361,0,1,1-.759-1.769,1.361,1.361,0,0,1,.759,1.769ZM63.62,57.613a1.361,1.361,0,1,1-1.769.759,1.361,1.361,0,0,1,1.769-.759ZM62.129,54.14a1.361,1.361,0,1,1-.759-1.769,1.361,1.361,0,0,1,.759,1.769Zm-.009,7.217a1.361,1.361,0,1,1-1.769.759,1.361,1.361,0,0,1,1.769-.759ZM61.1,71.1a1.361,1.361,0,1,1,.759,1.769A1.361,1.361,0,0,1,61.1,71.1Zm2.256-1.975a1.356,1.356,0,1,1,1.042-.011,1.361,1.361,0,0,1-1.042.011Zm1.5-3.744a1.354,1.354,0,1,1,1.041-.01,1.361,1.361,0,0,1-1.041.01Zm1.5-3.744a1.438,1.438,0,1,1-.005,0Zm1.488,3.473a.963.963,0,1,1-.005,0Zm2.247,5.242a.971.971,0,1,1-.005,0Zm.009-7.217a1.358,1.358,0,1,1,1.042-.012,1.361,1.361,0,0,1-1.042.012Zm1.5-3.744a2.227,2.227,0,1,1-.008,0Zm3.744,1.5a3.473,3.473,0,1,0-.007,0Zm-.478-6a1.124,1.124,0,1,0-.007,0Zm-1.778,7.976a.528.528,0,1,1-.007,0Zm3,7.012a3.46,3.46,0,1,0-.007,0Zm1.488,3.485a1.36,1.36,0,0,1,1.264-.854h0a1.341,1.341,0,0,1,1.246.857h-2.51Zm-.74-16.216a3,3,0,1,0-.006,0ZM74.589,51.9a1.348,1.348,0,0,1-.381-.238H75.98a1.355,1.355,0,0,1-1.391.238Zm-7.219,0a1.36,1.36,0,0,1-2.6-.23h2.662A1.371,1.371,0,0,1,67.37,51.9Zm-7.5,4.223a1.352,1.352,0,1,1-1.042.009,1.361,1.361,0,0,1,1.042-.009Zm.75,8.987a.534.534,0,1,1,0-.01Zm6.48,5.517a1.361,1.361,0,1,1,1.769-.759A1.361,1.361,0,0,1,67.1,70.627Zm5.242-2.247a1.361,1.361,0,1,1,1.769-.759,1.361,1.361,0,0,1-1.769.759Zm5.242-2.247a1.361,1.361,0,1,1,1.255-2.4v.014a1.36,1.36,0,0,1,0,2.25v0a1.359,1.359,0,0,1-1.254.133Zm-18.46,2.716a1.36,1.36,0,1,1-1.041.013,1.361,1.361,0,0,1,1.041-.013Zm5.65,4.518h2.662a1.393,1.393,0,0,1-.066.23,1.36,1.36,0,0,1-2.6-.23Zm0,0a1.36,1.36,0,1,1,2.669,0H64.775Zm5.584-.025c.017.007.031.018.048.025H69.294a1.355,1.355,0,0,1,1.065-.025Zm3.473-1.488a1.361,1.361,0,0,1,2.528,1.011,1.344,1.344,0,0,1-.357.5H74.188a1.357,1.357,0,0,1-.357-1.514Zm.377,1.514h1.773A1.332,1.332,0,0,1,74.208,73.368Zm4.849-3.76a1.361,1.361,0,1,1,.759,1.769,1.361,1.361,0,0,1-.759-1.769ZM73.082,41.165a1.361,1.361,0,1,1,.759,1.769A1.361,1.361,0,0,1,73.082,41.165Zm-1.5,3.744a1.361,1.361,0,1,1,.759,1.769,1.361,1.361,0,0,1-.759-1.769Zm.272,2.986a.6.6,0,1,0,0,.005ZM67.84,43.412a1.361,1.361,0,1,1,.759,1.769A1.361,1.361,0,0,1,67.84,43.412Zm.272,2.986a1.361,1.361,0,1,1-1.769.759,1.361,1.361,0,0,1,1.769-.759ZM64.1,41.914a1.361,1.361,0,1,1,.759,1.769A1.361,1.361,0,0,1,64.1,41.914Zm-1.5,3.744a1.361,1.361,0,1,1,.759,1.769,1.361,1.361,0,0,1-.759-1.769ZM60.623,43.4a1.361,1.361,0,1,1-1.769.759,1.361,1.361,0,0,1,1.769-.759Zm-1.5,3.744a1.364,1.364,0,1,1-1.04.014,1.361,1.361,0,0,1,1.04-.014Zm-2.5,13.472a1.352,1.352,0,0,1,.515-.63v-.008a1.36,1.36,0,1,1,.227,2.408,1.383,1.383,0,0,1-.227-.118v-.01a1.362,1.362,0,0,1-.515-1.643ZM62.13,75.844a1.361,1.361,0,1,1-.759-1.769,1.361,1.361,0,0,1,.759,1.769Zm6.459-1.76a1.352,1.352,0,0,1,.675-.717h1.174a1.358,1.358,0,1,1-1.849.717Zm3.744,1.5a1.359,1.359,0,1,1,.012,1.041,1.361,1.361,0,0,1-.012-1.041Zm11.5.263a1.361,1.361,0,1,1-.759-1.769,1.361,1.361,0,0,1,.759,1.769Zm1.5-3.729a1.361,1.361,0,1,1-.759-1.769,1.361,1.361,0,0,1,.759,1.769Zm-.75-8.987a1.361,1.361,0,1,1-.759-1.769,1.361,1.361,0,0,1,.759,1.769Z" transform="translate(-45.167 -22.647)" fill="#fff"/>
      <path id="Path_1571" data-name="Path 1571" d="M99.807,70.973a1.361,1.361,0,1,0-.759-1.769A1.361,1.361,0,0,0,99.807,70.973Z" transform="translate(-64.411 -34.976)" fill="#80dbf7"/>
      <path id="Path_1572" data-name="Path 1572" d="M96.922,75.246v.008a1.359,1.359,0,0,0,0,2.272v.01a1.361,1.361,0,1,0,0-2.29Z" transform="translate(-63.25 -37.912)" fill="#80dbf7"/>
      <path id="Path_1573" data-name="Path 1573" d="M96.246,83.573a1.36,1.36,0,0,0-.5-1.629V81.93a1.361,1.361,0,1,0,0,2.272v-.008a1.357,1.357,0,0,0,.5-.621Z" transform="translate(-62.076 -40.845)" fill="#80dbf7"/>
      <path id="Path_1574" data-name="Path 1574" d="M105.728,72.174a1.357,1.357,0,0,0,2.145,1.534l-1.821-2.01a1.348,1.348,0,0,0-.324.476Z" transform="translate(-67.346 -36.448)" fill="#80dbf7"/>
      <path id="Path_1575" data-name="Path 1575" d="M104.826,77.8a1.361,1.361,0,1,0,.759,1.769,1.361,1.361,0,0,0-.759-1.769Z" transform="translate(-66.172 -39.085)" fill="#80dbf7"/>
      <path id="Path_1576" data-name="Path 1576" d="M102.155,84.476a1.361,1.361,0,1,0,.759,1.769,1.361,1.361,0,0,0-.759-1.769Z" transform="translate(-64.998 -42.02)" fill="#80dbf7"/>
      <path id="Path_1577" data-name="Path 1577" d="M100.241,92.925a1.361,1.361,0,1,0-1.769.759,1.361,1.361,0,0,0,1.769-.759Z" transform="translate(-63.824 -44.955)" fill="#80dbf7"/>
      <path id="Path_1578" data-name="Path 1578" d="M109.737,81.364a1.357,1.357,0,0,0,.586,1.68c.007-.258.015-1.255.022-2.36a1.347,1.347,0,0,0-.608.681Z" transform="translate(-69.107 -40.397)" fill="#80dbf7"/>
      <path id="Path_1579" data-name="Path 1579" d="M107.065,87.906a1.358,1.358,0,0,0,2.08,1.589V87.329a1.343,1.343,0,0,0-2.08.577Z" transform="translate(-67.933 -43.194)" fill="#80dbf7"/>
      <path id="Path_1580" data-name="Path 1580" d="M106.163,93.826a1.361,1.361,0,1,0,.759,1.769,1.361,1.361,0,0,0-.759-1.769Z" transform="translate(-66.759 -46.128)" fill="#80dbf7"/>
      <path id="Path_1581" data-name="Path 1581" d="M103.49,100.477a1.361,1.361,0,1,0,.759,1.769,1.361,1.361,0,0,0-.759-1.769Z" transform="translate(-65.585 -49.051)" fill="#80dbf7"/>
      <path id="Path_1582" data-name="Path 1582" d="M97.587,99.291H95.066a1.355,1.355,0,0,0,1.27,1.844h0a1.355,1.355,0,0,0,1.251-1.845Z" transform="translate(-62.664 -48.572)" fill="#80dbf7"/>
      <path id="Path_1583" data-name="Path 1583" d="M100.248,107.224h1.267a1.239,1.239,0,0,0-.127-.066,1.353,1.353,0,0,0-1.14.066Z" transform="translate(-64.981 -51.987)" fill="#80dbf7"/>
      <path id="Path_1584" data-name="Path 1584" d="M108.4,103.912a1.357,1.357,0,0,0,.407,1.555h.925v-2.4a1.356,1.356,0,0,0-1.332.845Z" transform="translate(-68.52 -50.229)" fill="#80dbf7"/>
      <path id="Path_1585" data-name="Path 1585" d="M95.147,60.243H95.8l-.384-.424A1.353,1.353,0,0,0,95.147,60.243Z" transform="translate(-62.739 -31.231)" fill="#80dbf7"/>
      <path id="Path_1586" data-name="Path 1586" d="M65.1,42.183a1.356,1.356,0,0,0,1.7-1.9H64.414c-.022.043-.049.083-.067.128a1.361,1.361,0,0,0,.759,1.769Z" transform="translate(-49.163 -22.646)" fill="#80dbf7"/>
      <path id="Path_1587" data-name="Path 1587" d="M62.433,48.293a1.361,1.361,0,1,0-.759-1.769A1.361,1.361,0,0,0,62.433,48.293Z" transform="translate(-47.989 -25.011)" fill="#80dbf7"/>
      <path id="Path_1588" data-name="Path 1588" d="M59,53.2a1.361,1.361,0,1,0,1.769-.759A1.361,1.361,0,0,0,59,53.2Z" transform="translate(-46.816 -27.946)" fill="#80dbf7"/>
      <path id="Path_1589" data-name="Path 1589" d="M71.784,44.285a1.361,1.361,0,1,0-.759-1.769,1.361,1.361,0,0,0,.759,1.769Z" transform="translate(-52.098 -23.25)" fill="#80dbf7"/>
      <path id="Path_1590" data-name="Path 1590" d="M69.113,50.964a1.361,1.361,0,1,0-.759-1.769,1.361,1.361,0,0,0,.759,1.769Z" transform="translate(-50.924 -26.185)" fill="#80dbf7"/>
      <path id="Path_1591" data-name="Path 1591" d="M65.683,55.874a1.361,1.361,0,1,0,1.769-.759A1.361,1.361,0,0,0,65.683,55.874Z" transform="translate(-49.751 -29.12)" fill="#80dbf7"/>
      <path id="Path_1592" data-name="Path 1592" d="M81.144,41.434A1.343,1.343,0,0,0,83,40.285H80.3a1.357,1.357,0,0,0,.845,1.149Z" transform="translate(-56.215 -22.646)" fill="#80dbf7"/>
      <path id="Path_1593" data-name="Path 1593" d="M78.463,46.956a1.361,1.361,0,1,0-.759-1.769,1.361,1.361,0,0,0,.759,1.769Z" transform="translate(-55.032 -24.424)" fill="#80dbf7"/>
      <path id="Path_1594" data-name="Path 1594" d="M75.033,51.866a1.361,1.361,0,1,0,1.769-.759A1.361,1.361,0,0,0,75.033,51.866Z" transform="translate(-53.859 -27.358)" fill="#80dbf7"/>
      <path id="Path_1595" data-name="Path 1595" d="M87.814,42.948a1.361,1.361,0,1,0-.759-1.769,1.361,1.361,0,0,0,.759,1.769Z" transform="translate(-59.141 -22.663)" fill="#80dbf7"/>
      <path id="Path_1596" data-name="Path 1596" d="M85.143,49.627a1.361,1.361,0,1,0-.758-1.769,1.361,1.361,0,0,0,.758,1.769Z" transform="translate(-57.967 -25.597)" fill="#80dbf7"/>
      <path id="Path_1597" data-name="Path 1597" d="M81.713,54.538a1.361,1.361,0,1,0,1.769-.759,1.361,1.361,0,0,0-1.769.759Z" transform="translate(-56.794 -28.532)" fill="#80dbf7"/>
      <path id="Path_1598" data-name="Path 1598" d="M81.44,60.459a1.355,1.355,0,0,0-1.065.025h1.113C81.472,60.477,81.457,60.466,81.44,60.459Z" transform="translate(-56.249 -31.468)" fill="#80dbf7"/>
      <path id="Path_1599" data-name="Path 1599" d="M97.171,40.558v.01a1.344,1.344,0,0,0,1.777-.282H96.877a1.34,1.34,0,0,0,.295.272Z" transform="translate(-63.499 -22.647)" fill="#80dbf7"/>
      <path id="Path_1600" data-name="Path 1600" d="M93.735,43.85a1.36,1.36,0,0,0,2.013,1.64v-.008a1.36,1.36,0,0,0,0-2.249V43.22a1.362,1.362,0,0,0-2.013.631Z" transform="translate(-62.076 -23.837)" fill="#80dbf7"/>
      <path id="Path_1601" data-name="Path 1601" d="M92.833,49.771a1.361,1.361,0,1,0,.241,2.4,2.456,2.456,0,0,1,.456-.573c.016-.015.035-.024.051-.038s.007-.013.01-.02a1.361,1.361,0,0,0-.759-1.769Z" transform="translate(-60.902 -26.771)" fill="#80dbf7"/>
      <path id="Path_1602" data-name="Path 1602" d="M64.779,61.766a1.361,1.361,0,1,0,.759,1.769A1.361,1.361,0,0,0,64.779,61.766Z" transform="translate(-48.576 -32.042)" fill="#80dbf7"/>
      <path id="Path_1603" data-name="Path 1603" d="M95.066,60.58a1.355,1.355,0,0,0,1.27,1.844h0a1.363,1.363,0,0,0,.806-.283l-1.416-1.563h-.66Z" transform="translate(-62.664 -31.563)" fill="#80dbf7"/>
      <path id="Path_1604" data-name="Path 1604" d="M58.873,61.571a1.354,1.354,0,0,0,0-.99H56.356a1.355,1.355,0,0,0,1.27,1.844h0a1.36,1.36,0,0,0,1.247-.854Z" transform="translate(-45.656 -31.564)" fill="#80dbf7"/>
      <path id="Path_1605" data-name="Path 1605" d="M61.1,70.973a1.361,1.361,0,1,0-.759-1.769A1.361,1.361,0,0,0,61.1,70.973Z" transform="translate(-47.402 -34.976)" fill="#80dbf7"/>
      <path id="Path_1606" data-name="Path 1606" d="M58.438,77.653a1.361,1.361,0,1,0-.227-2.408v.008a1.359,1.359,0,0,0,0,2.272v.01a1.36,1.36,0,0,0,.227.118Z" transform="translate(-46.241 -37.912)" fill="#80dbf7"/>
      <path id="Path_1607" data-name="Path 1607" d="M73.142,61.569a1.361,1.361,0,0,0,1.769-.759,1.386,1.386,0,0,0,.066-.23H72.316A1.358,1.358,0,0,0,73.142,61.569Z" transform="translate(-52.708 -31.564)" fill="#80dbf7"/>
      <path id="Path_1608" data-name="Path 1608" d="M69.689,65.2a1.361,1.361,0,1,0,1.769-.759,1.361,1.361,0,0,0-1.769.759Z" transform="translate(-51.511 -33.215)" fill="#80dbf7"/>
      <path id="Path_1609" data-name="Path 1609" d="M67.017,71.876a1.361,1.361,0,1,0,1.769-.759,1.361,1.361,0,0,0-1.769.759Z" transform="translate(-50.337 -36.15)" fill="#80dbf7"/>
      <path id="Path_1610" data-name="Path 1610" d="M64.346,78.555a1.361,1.361,0,1,0,1.769-.759A1.361,1.361,0,0,0,64.346,78.555Z" transform="translate(-49.163 -39.085)" fill="#80dbf7"/>
      <path id="Path_1611" data-name="Path 1611" d="M61.675,85.234a1.361,1.361,0,1,0,1.769-.759A1.361,1.361,0,0,0,61.675,85.234Z" transform="translate(-47.99 -42.02)" fill="#80dbf7"/>
      <path id="Path_1612" data-name="Path 1612" d="M59,91.914a1.361,1.361,0,1,0,1.769-.759A1.361,1.361,0,0,0,59,91.914Z" transform="translate(-46.816 -44.955)" fill="#80dbf7"/>
      <path id="Path_1613" data-name="Path 1613" d="M79.039,61.3a1.361,1.361,0,1,0,1.849-.717H79.714a1.352,1.352,0,0,0-.675.717Z" transform="translate(-55.619 -31.563)" fill="#80dbf7"/>
      <path id="Path_1614" data-name="Path 1614" d="M76.368,67.868a1.361,1.361,0,1,0,1.769-.759A1.361,1.361,0,0,0,76.368,67.868Z" transform="translate(-54.445 -34.389)" fill="#80dbf7"/>
      <path id="Path_1615" data-name="Path 1615" d="M76.224,75.558a1.361,1.361,0,1,0-1.769.759A1.361,1.361,0,0,0,76.224,75.558Z" transform="translate(-53.271 -37.324)" fill="#80dbf7"/>
      <path id="Path_1616" data-name="Path 1616" d="M73.553,82.237a1.361,1.361,0,1,0-.726.748,1.361,1.361,0,0,0,.726-.748Z" transform="translate(-52.098 -40.259)" fill="#80dbf7"/>
      <path id="Path_1617" data-name="Path 1617" d="M70.882,88.917a1.361,1.361,0,1,0-1.769.759A1.361,1.361,0,0,0,70.882,88.917Z" transform="translate(-50.924 -43.194)" fill="#80dbf7"/>
      <path id="Path_1618" data-name="Path 1618" d="M66.441,96.354a1.361,1.361,0,1,0-.759-1.769,1.361,1.361,0,0,0,.759,1.769Z" transform="translate(-49.75 -46.128)" fill="#80dbf7"/>
      <path id="Path_1619" data-name="Path 1619" d="M85.719,63.859a1.361,1.361,0,1,0,1.769-.759A1.361,1.361,0,0,0,85.719,63.859Z" transform="translate(-58.554 -32.628)" fill="#80dbf7"/>
      <path id="Path_1620" data-name="Path 1620" d="M85.575,71.55a1.361,1.361,0,1,0-1.769.759A1.361,1.361,0,0,0,85.575,71.55Z" transform="translate(-57.38 -35.563)" fill="#80dbf7"/>
      <path id="Path_1621" data-name="Path 1621" d="M82.9,78.229a1.361,1.361,0,1,0-1.769.759A1.361,1.361,0,0,0,82.9,78.229Z" transform="translate(-56.206 -38.498)" fill="#80dbf7"/>
      <path id="Path_1622" data-name="Path 1622" d="M78.463,85.666A1.361,1.361,0,1,0,77.7,83.9,1.361,1.361,0,0,0,78.463,85.666Z" transform="translate(-55.032 -41.432)" fill="#80dbf7"/>
      <path id="Path_1623" data-name="Path 1623" d="M77.561,91.588a1.361,1.361,0,1,0-1.769.759A1.361,1.361,0,0,0,77.561,91.588Z" transform="translate(-53.859 -44.367)" fill="#80dbf7"/>
      <path id="Path_1624" data-name="Path 1624" d="M74.133,96.5a1.358,1.358,0,0,0-1.839,1.523h2.669a1.36,1.36,0,0,0-.829-1.523Z" transform="translate(-52.687 -47.302)" fill="#80dbf7"/>
      <path id="Path_1625" data-name="Path 1625" d="M94.926,67.542a1.361,1.361,0,1,0-1.769.759,1.361,1.361,0,0,0,1.769-.759Z" transform="translate(-61.489 -33.802)" fill="#80dbf7"/>
      <path id="Path_1626" data-name="Path 1626" d="M92.254,74.221a1.361,1.361,0,1,0-1.769.759A1.361,1.361,0,0,0,92.254,74.221Z" transform="translate(-60.315 -36.737)" fill="#80dbf7"/>
      <path id="Path_1627" data-name="Path 1627" d="M87.814,81.658a1.361,1.361,0,1,0-.759-1.769,1.361,1.361,0,0,0,.759,1.769Z" transform="translate(-59.141 -39.671)" fill="#80dbf7"/>
      <path id="Path_1628" data-name="Path 1628" d="M86.912,87.58a1.361,1.361,0,1,0-1.769.759,1.361,1.361,0,0,0,1.769-.759Z" transform="translate(-57.967 -42.606)" fill="#80dbf7"/>
      <path id="Path_1629" data-name="Path 1629" d="M82.471,95.017a1.361,1.361,0,1,0-.759-1.769A1.361,1.361,0,0,0,82.471,95.017Z" transform="translate(-56.793 -45.541)" fill="#80dbf7"/>
      <path id="Path_1630" data-name="Path 1630" d="M93.591,90.251a1.361,1.361,0,1,0-1.769.759,1.361,1.361,0,0,0,1.769-.759Z" transform="translate(-60.902 -43.78)" fill="#80dbf7"/>
      <path id="Path_1631" data-name="Path 1631" d="M89.523,60.819a1.356,1.356,0,0,0,1.391-.238H89.142a1.347,1.347,0,0,0,.381.238Z" transform="translate(-60.101 -31.564)" fill="#80dbf7"/>
      <path id="Path_1632" data-name="Path 1632" d="M72.294,59.31h2.669a1.36,1.36,0,1,0-2.669,0Z" transform="translate(-52.687 -30.294)" fill="#80dbf7"/>
      <path id="Path_1633" data-name="Path 1633" d="M88.75,58.723h1.814a1.345,1.345,0,0,0,.357-.5,1.361,1.361,0,1,0-2.171.5Z" transform="translate(-59.729 -29.706)" fill="#80dbf7"/>
      <path id="Path_1634" data-name="Path 1634" d="M64.779,100.477a1.361,1.361,0,1,0,.759,1.769A1.361,1.361,0,0,0,64.779,100.477Z" transform="translate(-48.576 -49.051)" fill="#80dbf7"/>
      <path id="Path_1635" data-name="Path 1635" d="M58.877,99.291H56.356a1.355,1.355,0,0,0,1.27,1.844h0a1.355,1.355,0,0,0,1.251-1.845Z" transform="translate(-45.656 -48.572)" fill="#80dbf7"/>
      <path id="Path_1636" data-name="Path 1636" d="M61.538,107.224H62.8a1.239,1.239,0,0,0-.127-.066,1.353,1.353,0,0,0-1.14.066Z" transform="translate(-47.972 -51.987)" fill="#80dbf7"/>
      <path id="Path_1637" data-name="Path 1637" d="M74.911,99.521a1.377,1.377,0,0,0,.066-.23H72.315a1.36,1.36,0,0,0,2.6.23Z" transform="translate(-52.707 -48.572)" fill="#80dbf7"/>
      <path id="Path_1638" data-name="Path 1638" d="M72.217,104.918a1.361,1.361,0,1,0-2.121.544H71.81a1.349,1.349,0,0,0,.407-.544Z" transform="translate(-51.511 -50.224)" fill="#80dbf7"/>
      <path id="Path_1639" data-name="Path 1639" d="M79.8,101.777a1.358,1.358,0,0,0,1.09-2.486H79.714a1.357,1.357,0,0,0,.084,2.486Z" transform="translate(-55.619 -48.572)" fill="#80dbf7"/>
      <path id="Path_1640" data-name="Path 1640" d="M78.2,105.819a1.361,1.361,0,0,0-1.769.759c-.007.019-.01.038-.016.057h2.56a1.352,1.352,0,0,0-.774-.816Z" transform="translate(-54.509 -51.398)" fill="#80dbf7"/>
      <path id="Path_1641" data-name="Path 1641" d="M86.477,104.339a1.361,1.361,0,1,0-.759-1.769,1.361,1.361,0,0,0,.759,1.769Z" transform="translate(-58.554 -49.637)" fill="#80dbf7"/>
      <path id="Path_1642" data-name="Path 1642" d="M94.168,104.483a1.36,1.36,0,0,0-1.832,1.565h2.648a1.358,1.358,0,0,0-.816-1.565Z" transform="translate(-61.489 -50.811)" fill="#80dbf7"/>
      <path id="Path_1643" data-name="Path 1643" d="M90.915,99.291H89.142A1.332,1.332,0,0,0,90.915,99.291Z" transform="translate(-60.101 -48.572)" fill="#80dbf7"/>
      <path id="Path_1644" data-name="Path 1644" d="M96.41,98.619h1.245a1.341,1.341,0,0,0-1.246-.857h0a1.359,1.359,0,0,0-1.264.854H96.41Z" transform="translate(-62.738 -47.9)" fill="#80dbf7"/>
      <path id="Path_1645" data-name="Path 1645" d="M81.44,99.17a1.355,1.355,0,0,0-1.065.025h1.113C81.471,99.188,81.456,99.177,81.44,99.17Z" transform="translate(-56.249 -48.477)" fill="#80dbf7"/>
      <path id="Path_1646" data-name="Path 1646" d="M90.563,97.434a1.345,1.345,0,0,0,.357-.5,1.361,1.361,0,1,0-2.171.5h1.814Z" transform="translate(-59.729 -46.715)" fill="#80dbf7"/>
      <path id="Path_1647" data-name="Path 1647" d="M56.436,59.9h2.51a1.341,1.341,0,0,0-1.246-.857h0A1.359,1.359,0,0,0,56.436,59.9Z" transform="translate(-45.73 -30.891)" fill="#80dbf7"/>
      <path id="Path_1648" data-name="Path 1648" d="M58.461,40.558v.01a1.344,1.344,0,0,0,1.777-.282H58.167a1.34,1.34,0,0,0,.3.272Z" transform="translate(-46.491 -22.647)" fill="#80dbf7"/>
      <path id="Path_1649" data-name="Path 1649" d="M55.883,45.62a1.359,1.359,0,0,0,1.255-.129v-.008a1.36,1.36,0,0,0,0-2.249V43.22a1.357,1.357,0,0,0-1.983.575v1.129a1.354,1.354,0,0,0,.729.7Z" transform="translate(-45.167 -23.837)" fill="#80dbf7"/>
      <path id="Path_1650" data-name="Path 1650" d="M55.154,52.391a1.357,1.357,0,0,0,0-2.667Z" transform="translate(-45.167 -26.794)" fill="#80dbf7"/>
      <path id="Path_1651" data-name="Path 1651" d="M56.436,98.615h2.51a1.341,1.341,0,0,0-1.246-.857h0a1.359,1.359,0,0,0-1.264.857Z" transform="translate(-45.73 -47.9)" fill="#80dbf7"/>
      <path id="Path_1652" data-name="Path 1652" d="M56.9,67.543a1.357,1.357,0,0,0-1.749-1.773v2.537A1.36,1.36,0,0,0,56.9,67.543Z" transform="translate(-45.167 -33.804)" fill="#80dbf7"/>
      <path id="Path_1653" data-name="Path 1653" d="M55.4,74.582a1.356,1.356,0,0,0-.251-1.407v1.8A1.347,1.347,0,0,0,55.4,74.582Z" transform="translate(-45.167 -37.097)" fill="#80dbf7"/>
      <path id="Path_1654" data-name="Path 1654" d="M55.883,84.331a1.359,1.359,0,0,0,1.255-.129v-.008a1.36,1.36,0,0,0,0-2.25V81.93a1.357,1.357,0,0,0-1.983.575v1.129a1.354,1.354,0,0,0,.728.7Z" transform="translate(-45.167 -40.846)" fill="#80dbf7"/>
      <path id="Path_1655" data-name="Path 1655" d="M55.154,91.1a1.357,1.357,0,0,0,0-2.667Z" transform="translate(-45.167 -43.802)" fill="#80dbf7"/>
      <path id="Path_1656" data-name="Path 1656" d="M56.144,104.485a1.354,1.354,0,0,0-.99,0v1.569h1.807a1.358,1.358,0,0,0-.817-1.565Z" transform="translate(-45.167 -50.812)" fill="#80dbf7"/>
      <path id="Path_1657" data-name="Path 1657" d="M115.883,46.179a2.49,2.49,0,0,0-3.492.473L99.866,63.1V52.7l-8.5,11.162v33.5a7.569,7.569,0,0,1-7.562,7.561H55.163a7.567,7.567,0,0,0,7.555,7.457H92.3a7.57,7.57,0,0,0,7.562-7.561v-33.5l16.49-21.652a2.492,2.492,0,0,0-.473-3.492Z" transform="translate(-45.171 -25.012)" fill="#00b7ef"/>
      <path id="Path_1658" data-name="Path 1658" d="M119.739,30.742V46.223l8.5-11.162V31.8a7.569,7.569,0,0,0-7.562-7.561h-.939v6.508Z" transform="translate(-73.544 -15.594)" fill="#00b7ef"/>
      <path id="Path_1659" data-name="Path 1659" d="M47.327,83.753H44.9a2.582,2.582,0,0,1-2.579-2.579V69.042h5.005V64.059h-5v-37.6h5.005V25.023a7.51,7.51,0,0,1,.886-3.544H42.322v-5.1A2.582,2.582,0,0,1,44.9,13.8H75.973a2.582,2.582,0,0,1,2.579,2.579v1.08h4.982v-1.08a7.569,7.569,0,0,0-7.562-7.561H44.9a7.569,7.569,0,0,0-7.561,7.561v64.8A7.569,7.569,0,0,0,44.9,88.735h2.432c0-.035-.005-.068-.005-.1Z" transform="translate(-37.34 -8.822)" fill="#f2690d"/>
      <path id="Path_1660" data-name="Path 1660" d="M83.8,118.563A7.57,7.57,0,0,0,91.362,111V77.5l-.113.149c-.028.037-.064.063-.094.1a2.469,2.469,0,0,1-.216.239c-.018.016-.039.027-.057.042a1.623,1.623,0,0,1-.158.118,2.394,2.394,0,0,1-.289.184c-.056.03-.11.057-.167.082a2.422,2.422,0,0,1-.345.121c-.049.013-.1.03-.146.04a2.482,2.482,0,0,1-.51.058h0a2.463,2.463,0,0,1-.461-.048c-.043-.008-.083-.02-.125-.03a2.5,2.5,0,0,1-.328-.1c-.046-.018-.091-.037-.137-.058a2.5,2.5,0,0,1-.31-.175c-.035-.024-.072-.043-.107-.068-.013-.01-.027-.016-.04-.026a2.39,2.39,0,0,1-.239-.224c-.031-.031-.068-.054-.1-.087L87.4,77.79l-.012-.013-.964-1.064c0,.649-.01,1.462-.015,2.227-.007,1.1-.015,2.1-.022,2.36a.472.472,0,0,1,0,.072V93.886H55.154v4.982H86.379V111a2.582,2.582,0,0,1-2.566,2.577H55.154v4.879a.65.65,0,0,0,.005.1H83.8Z" transform="translate(-45.167 -38.65)" fill="#234153"/>
      <path id="Path_1661" data-name="Path 1661" d="M86.379,24.234v4.017H56.04a7.51,7.51,0,0,0-.886,3.544v1.439H86.379V46.19l2.72,3,2.262-2.97V24.234Z" transform="translate(-45.167 -15.594)" fill="#234153"/>
      <path id="Path_1662" data-name="Path 1662" d="M71.663,126.983a3.895,3.895,0,0,0,7.761-.461c0-.121-.007-.239-.018-.356a3.858,3.858,0,0,0-.57-1.694,3.916,3.916,0,0,0-1.152-1.193,3.875,3.875,0,0,0-2.155-.651c-.078,0-.154.007-.231.012a3.871,3.871,0,0,0-3.634,4.344Z" transform="translate(-52.408 -58.826)" fill="#234153"/>
      <path id="Path_1663" data-name="Path 1663" d="M108.469,49.8l-2.262,2.97-2.72-3-1.864-2.057L99.945,45.86l-1.236-1.365-.29-.32a2.484,2.484,0,0,0-3.466-.212c-.016.014-.035.023-.051.038a2.537,2.537,0,0,0-.174,3.517l.225.248.384.424h0l1.416,1.563,4.229,4.67,1.821,2.01.685.756.04.045.964,1.064.012.013.024.027c.03.033.066.055.1.087a2.4,2.4,0,0,0,.239.224c.013.01.027.016.04.026.035.025.072.045.107.068a2.506,2.506,0,0,0,.31.175c.045.021.09.04.137.058a2.5,2.5,0,0,0,.328.1c.043.01.083.022.125.03a2.511,2.511,0,0,0,.461.048h0a2.493,2.493,0,0,0,.51-.058c.05-.011.1-.027.146-.04a2.421,2.421,0,0,0,.345-.121c.057-.025.112-.052.167-.082a2.464,2.464,0,0,0,.289-.184c.053-.039.107-.075.158-.118.018-.016.039-.026.057-.042a2.472,2.472,0,0,0,.216-.239c.03-.035.066-.061.094-.1l.113-.149,8.5-11.162,7.989-10.49a2.491,2.491,0,0,0-3.965-3.018l-4.025,5.285-8.5,11.162Z" transform="translate(-62.274 -19.167)" fill="#f2690d"/>
    </g>
  </g>
</svg>
