<svg xmlns="http://www.w3.org/2000/svg" width="32" height="32" viewBox="0 0 32 32" fill="none">
  <g clip-path="url(#service-c0)">
    <rect width="32" height="32" rx="7.06165" fill="#9EF2A4" />
    <path
      fill-rule="evenodd"
      clip-rule="evenodd"
      d="M16.0005 8C17.7264 8 19.1255 9.39911 19.1255 11.125C19.1255 12.296 18.4811 13.3155 17.5278 13.8504C17.2266 14.0194 17.0005 14.3175 17.0005 14.6629C17.0005 15.072 17.3087 15.412 17.7099 15.4922C20.8746 16.1243 23.4181 18.4769 24.3227 21.5338C24.7145 22.8577 23.5589 24 22.1782 24L9.82275 24C8.44203 24 7.28644 22.8577 7.67827 21.5338C8.58295 18.4769 11.1264 16.1244 14.291 15.4922C14.6923 15.4121 15.0005 15.072 15.0005 14.6628C15.0005 14.3175 14.7744 14.0194 14.4732 13.8504C13.5199 13.3154 12.8755 12.2959 12.8755 11.125C12.8755 9.39916 14.2747 8.00008 16.0005 8Z"
      fill="black"
    />
  </g>
  <defs>
    <clipPath id="service-c0">
      <rect width="32" height="32" fill="white" />
    </clipPath>
  </defs>
</svg>
