<?xml version="1.0" encoding="UTF-8"?> <svg xmlns="http://www.w3.org/2000/svg" xmlns:xlink="http://www.w3.org/1999/xlink" width="456" height="364"><defs><linearGradient id="linear-gradient" x1="273.67" y1="18.73" x2="273.67" y2="121.25" gradientUnits="userSpaceOnUse"><stop offset="0" stop-color="#fff"></stop><stop offset="1" stop-color="#fff" stop-opacity="0"></stop></linearGradient><linearGradient id="linear-gradient-2" x1="121.73" y1="123.67" x2="136.93" y2="60.26" xlink:href="#linear-gradient"></linearGradient><clipPath id="clip-path"><circle class="cls-1" cx="228" cy="182" r="182"></circle></clipPath><style>.cls-1{fill:#fece89}.cls-4{fill:#f3a61f}.cls-11,.cls-22,.cls-24,.cls-36,.cls-4,.cls-5,.cls-9{fill-rule:evenodd}.cls-33,.cls-5{fill:#fff}.cls-9{fill:#fefefe}.cls-11{fill:#434243}.cls-22{fill:#e04c3f}.cls-24{fill:#f8edd5}.cls-27{fill:none;stroke:#020303;stroke-miterlimit:10;stroke-width:4px}.cls-36{fill:#0a82c6}</style></defs><g id="illu-pro-checkin"><g id="Illustration"><g id="Illustration-2" data-name="Illustration"><circle class="cls-1" cx="228" cy="182" r="182"></circle><g style="isolation:isolate" clip-path="url(#clip-path)"><g id="Newspaper"><path class="cls-4" d="M280.6 74.71l60.98 206.07 22.87-10.58L280.6 74.71z"></path><path class="cls-5" d="M416.44 29.42l68.57 207.25-84.72 67.88-51.23-22.91-57.02-172.33-11.44-34.6 3.03.41 2.72-2.66 3.78.51 2.73-2.66 3.77.51 2.73-2.66 3.78.51 2.72-2.66 3.78.51 2.73-2.67 3.77.52 2.73-2.67 3.78.52 2.73-2.67 3.77.51 2.73-2.66 3.78.51 2.72-2.66 3.78.51 2.72-2.66 3.78.51 2.73-2.66 3.77.51 2.73-2.67 3.78.52 2.72-2.67 3.78.51 2.73-2.66 3.78.51 2.72-2.66 3.78.51 2.73-2.66 3.78.51 2.73-2.67 3.77.52 2.73-2.67 3.78.51 2.73-2.66 3.78.51 2.73-2.67 3.78.52 2.72-2.67z"></path><path d="M319.22 160.75l57.44-19 4.14 12.5-57.44 19zm94.4-108.34L296 91.33l4.14 12.51 117.62-38.92z" fill="#97cfe8" fill-rule="evenodd"></path><path d="M374.38 134.87l-57.43 19-14-42.45 57.43-19zm46.16-62.36l-57.44 19 1 3.13 57.43-19zm1.85 5.61l-28 9.28 1 3.13 28-9.28zM393 87.85l-28 9.28 1 3.13L394 91zm31.25-4.11l-57.43 19 1 3.13 57.44-19zm1.86 5.62l-57.43 19 1 3.13 57.44-19zM428 95l-57.44 19 1 3.13L429 98.1zm1.86 5.62l-57.44 19 1 3.13 57.43-19zm1.86 5.62l-57.44 19 1 3.13 57.43-19zm1.85 5.61l-57.43 19 1 3.13 57.44-19zm-33.36 91.75l57.43-19-20.73-62.6-57.44 19zM327 184.18l57.44-19-1-3.12-57.43 19zm1.86 5.61l28-9.27-1-3.13-28 9.27zm29.4-9.72l28-9.28-1-3.13-28 9.28zm-27.54 15.34l57.44-19-1-3.13-57.43 19zm1.86 5.61L390 182l-1-3.13-57.44 19zm1.86 5.62l57.43-19-1-3.13-57.44 19zm1.85 5.62l57.44-19-1-3.13-57.43 19zm1.86 5.61l57.44-19-1-3.13-57.43 19zm1.86 5.62l57.44-19-1-3.13-57.43 19z" fill="#e5e5e4" fill-rule="evenodd"></path><path d="M294.85 117.81l-1.27-3.87a4.28 4.28 0 00.37-.9 9.76 9.76 0 01.38-1.8c.41-.86 1.41-1.24 2.15-1.84s1.24-1.43 1.92-2.09a8 8 0 015.43-1.91c2-.06 3.77.68 5.73.62a9.35 9.35 0 012.18 0 12 12 0 011.82.66 9.78 9.78 0 001.65.5 6.47 6.47 0 01.74.15 2.77 2.77 0 01.56.31 13.07 13.07 0 014.1 4.17c.12.16 1.63 3.84 2.11 5a14.92 14.92 0 011.16 3c.36 2.09-.79 4.12-1.09 6.22a3.49 3.49 0 00-.05.72 4.48 4.48 0 00-.45 1.71c0 .41 0 .82-.05 1.22a3.25 3.25 0 01-.5 1.35 5.42 5.42 0 01-.64.81l-.25.05a1 1 0 01-1-.89.79.79 0 010-.22 5.15 5.15 0 00.53-.7c.06-.1.12-.2.17-.3.62-1.27.41-2.76.53-4.16a22.36 22.36 0 00.47-4.29 23 23 0 00-.56-2.46c-.17-.84-.21-1.71-.45-2.53a11 11 0 00-2.06-3.5 8.56 8.56 0 00-1.68-1.84 6.5 6.5 0 00-2.25-1 19.57 19.57 0 00-2.95-.62 18.91 18.91 0 00-4.75-.16c-.29 0-.57.08-.85.14a12.92 12.92 0 00-2.31.63c-1.32.55-1.49.18-3.28 1.13-1.4.74-2 1.28-2.32 2a1 1 0 01-.23.3 13.24 13.24 0 00-3.01 4.39zm14.31 20.82a14.7 14.7 0 011.75-.83c1.68-.53 3.78.19 5.09-1a4.84 4.84 0 00.92-1.31 1 1 0 00-.62-1.15 1.66 1.66 0 00-1.45.38c-.42.3-.77.7-1.21 1a4.65 4.65 0 01-1.87.54c-.86.09-1.73.11-2.59.12a25.64 25.64 0 01-5.11-.23 9.61 9.61 0 01-3.6-1.37l1.14 3.44a12.18 12.18 0 001.58.65 8.25 8.25 0 005.97-.24zm16.78-12a.87.87 0 001-.72.88.88 0 10-1 .72zm4.65 1.32a1 1 0 10.78 1.1 1 1 0 00-.78-1.05zm-4.32 0a2.1 2.1 0 101.73 2.42 2.1 2.1 0 00-1.73-2.37zm2.88-3.18a.43.43 0 00-.49.35.43.43 0 10.49-.35z" opacity=".4" fill="#726355"></path></g><g id="Coffee"><path class="cls-4" d="M259.24 187.9l22.87-28.85-35.88-35.31-25.57 25.57a27.28 27.28 0 1038.58 38.59"></path><path class="cls-9" d="M287.24 173.64a2.54 2.54 0 00.57-3.54l-12.42-17.25-4.12 3 12.42 17.25a2.55 2.55 0 003.55.57"></path><path class="cls-9" d="M241.44 156.2a27.28 27.28 0 1138.08 6.19 27.28 27.28 0 01-38.08-6.19"></path><path d="M240.69 136.53a23.19 23.19 0 1119.16 26.61 23.18 23.18 0 01-19.16-26.61" opacity=".8" fill="#726355" fill-rule="evenodd"></path><path class="cls-11" d="M243.16 136.93c1.77-10.86 12.54-16.83 23.4-15.06s19.15 10.83 17.38 21.69-12.8 18.72-23.66 16.95-18.88-12.71-17.12-23.58"></path><path d="M280.05 142.16a2 2 0 11-1.62-2.26 2 2 0 011.62 2.26zm-23.3-17.39a1.55 1.55 0 10-1.78 1.28 1.56 1.56 0 001.78-1.28zm.9 29.13a1.55 1.55 0 101.28 1.77 1.55 1.55 0 00-1.28-1.77zm18.53-18.48a1.55 1.55 0 113.06.5 1.55 1.55 0 11-3.06-.5zm.63.26a.91.91 0 101-.74.91.91 0 00-1 .74zm-23.75 16.73a2.34 2.34 0 101.94 2.69 2.34 2.34 0 00-1.94-2.69z" fill="#726355"></path><path d="M259.85 163.14a23.18 23.18 0 0020.43-6.81 23.18 23.18 0 01-26.66-37 23.18 23.18 0 006.23 43.82" fill="#333" opacity=".8" fill-rule="evenodd"></path><path d="M291.78 143h-4.37c1.1-5.51-2.13-26.66-23.75-26.95-16.83-.23-25.38 15.31-23.86 27h-4.3c0-24.52 8.86-38.08 14.73-48 4.22-7.13 6.15-10.38 6.15-19.7s-1.93-12.57-6.15-19.7c-5.65-9.53-13.43-31.93-14-55.47L291.7 0c.34 9.09 2.38 20.87 6.23 27.37 5.87 9.9 13.91 23.46 13.91 48s-8 38.08-13.91 48c-4.22 7.13-6.15 10.38-6.15 19.7" opacity=".5" fill="url(#linear-gradient)" fill-rule="evenodd"></path></g><g id="Food"><path class="cls-4" d="M249.43 243.54a62 62 0 11-62-62 62 62 0 0162 62"></path><g id="Toast"><path class="cls-9" d="M254.63 238.24a62 62 0 11-62-62 62 62 0 0162 62"></path><path d="M237.07 238.24a44.44 44.44 0 11-44.43-44.43 44.43 44.43 0 0144.43 44.43" fill="#e8e7e7" fill-rule="evenodd"></path></g><g id="Toast-2" data-name="Toast"><path d="M223.36 249l-16.86-44.6a7 7 0 00-9-4.08l.78-.29a6.1 6.1 0 003.55-7.88l-1.29-3.44a6.12 6.12 0 00-7.88-3.56l-50.24 19a6.11 6.11 0 00-3.52 7.85l1.3 3.43a6.11 6.11 0 007.88 3.56l.6-.23a7 7 0 00-3.86 8.91l16.85 44.61a5.54 5.54 0 007.13 3.22l51.33-19.4a5.53 5.53 0 003.23-7.1z" fill="#c0894c" fill-rule="evenodd"></path><path d="M220.9 249.91l-16.85-44.61a4.36 4.36 0 00-5.58-2.54 2.3 2.3 0 01-3-1.34l-.23-.61a2.31 2.31 0 011.31-3l.78-.29a3.5 3.5 0 002-4.5l-1.3-3.44a3.5 3.5 0 00-4.5-2l-50.24 19a3.5 3.5 0 00-2 4.5l1.3 3.44a3.5 3.5 0 004.5 2l.61-.23.2-.08a2.3 2.3 0 012.76 1.4l.23.61a2.3 2.3 0 01-1.15 2.88 4.37 4.37 0 00-2.54 5.62l16.85 44.6a2.91 2.91 0 003.75 1.69l51.33-19.4a2.9 2.9 0 001.77-3.7z" fill="#ecce70"></path><path d="M157.13 226.76a1.14 1.14 0 11-1.14-1.13 1.14 1.14 0 011.14 1.13m2-4a1.13 1.13 0 10-1.13 1.13 1.14 1.14 0 001.13-1.13m26.14-26a1.14 1.14 0 10-1.14 1.13 1.14 1.14 0 001.14-1.13m4.18 1.39a1.14 1.14 0 10-1.13 1.13 1.14 1.14 0 001.13-1.13m-32.58 8.54a1.14 1.14 0 10-1.14 1.13 1.13 1.13 0 001.14-1.13" fill="#dcbe67" fill-rule="evenodd"></path></g><g id="Eggs"><path class="cls-9" d="M233 232c0 5.82-7.79 9.6-10.51 14.31s-2.28 13.46-7.13 16.26c-4.7 2.72-11.83-2-17.66-2s-12.95 4.68-17.65 2-4.32-11.42-7.13-16.26-10.52-8.53-10.52-14.31 7.79-9.6 10.51-14.3 2.28-13.47 7.13-16.27 11.83 2 17.65 2 13-4.68 17.66-2c4.85 2.8 4.32 11.42 7.13 16.27S233 226.14 233 232"></path><path d="M213 225.27a12.92 12.92 0 11-12.91-12.92A12.91 12.91 0 01213 225.27" fill="#f4cb24" fill-rule="evenodd"></path><path d="M212.42 223.85a11.08 11.08 0 11-11.07-11.08 11.07 11.07 0 0111.07 11.08" fill="#fde166" fill-rule="evenodd"></path></g><g id="Bacon"><path d="M181.82 285.23a54.93 54.93 0 01-12.65 2.88 9.92 9.92 0 00-4.12 1.08L154 271a56.12 56.12 0 0118.16-5.12 10 10 0 004.11-1.08 8.82 8.82 0 003.35-2.35 49.82 49.82 0 0115.08-10.16 56.12 56.12 0 0118.16-5.12 9.87 9.87 0 004.11-1.09 8.68 8.68 0 003.35-2.34 49.63 49.63 0 0115.08-10.16l11.1 18.17a8.75 8.75 0 00-3.34 2.35A50.14 50.14 0 01228 264.28a56.38 56.38 0 01-18.16 5.12 9.88 9.88 0 00-4.12 1.08 8.79 8.79 0 00-3.34 2.35A50 50 0 01187.33 283c-2 .91-3.81 1.64-5.51 2.24" fill="#bf3b31" fill-rule="evenodd"></path><path class="cls-22" d="M176.23 272.64a37.44 37.44 0 01-8.64 1.92 28.48 28.48 0 00-9.82 2.72l-2.09-3.43a37.19 37.19 0 0112.46-3.48 28.6 28.6 0 009.81-2.72 25.45 25.45 0 008.11-5.52 33.06 33.06 0 0110.32-7 37.13 37.13 0 0112.46-3.48 28.43 28.43 0 009.81-2.73 25.17 25.17 0 008.11-5.51 33.06 33.06 0 0110.32-7l2.1 3.43a25.17 25.17 0 00-8.11 5.51 33.06 33.06 0 01-10.32 7 37.26 37.26 0 01-12.46 3.49 28.25 28.25 0 00-9.82 2.72 25.22 25.22 0 00-8.1 5.51 32.89 32.89 0 01-10.32 7c-1.39.64-2.66 1.16-3.82 1.57"></path><path class="cls-22" d="M235.07 260.89a59.67 59.67 0 01-10.32 2.61 45.08 45.08 0 01-17.61-.13 7.9 7.9 0 00-3.94-.1 9.83 9.83 0 00-4 1.42 56.84 56.84 0 01-17.95 6 45.28 45.28 0 01-17.6-.12 7.83 7.83 0 00-4-.11l1.26-22a45.35 45.35 0 0117.61.12 7.79 7.79 0 003.94.11 9.8 9.8 0 004-1.42 57 57 0 0117.95-6 45.35 45.35 0 0117.61.12 7.79 7.79 0 003.94.11 10 10 0 004-1.42 56.79 56.79 0 0118-6l-1.26 22a10 10 0 00-4 1.42 60.45 60.45 0 01-7.63 3.36"></path><path d="M232.5 247.36a40 40 0 01-6.93 1.74 30 30 0 01-12.06-.12 22.86 22.86 0 00-9.49-.12 29 29 0 00-9.68 3.27 37.8 37.8 0 01-12.3 4.12 29.88 29.88 0 01-12.07-.12 22.85 22.85 0 00-9.48-.11l.24-4.15a29.82 29.82 0 0112.06.12 22.69 22.69 0 009.48.11 28.74 28.74 0 009.68-3.26 37.87 37.87 0 0112.31-4.12 29.81 29.81 0 0112.06.12 22.9 22.9 0 009.49.11 28.82 28.82 0 009.68-3.26 37.55 37.55 0 0112.31-4.12l-.24 4.14a28.74 28.74 0 00-9.68 3.26 42.48 42.48 0 01-5.38 2.39" fill="#f3815c" fill-rule="evenodd"></path></g></g><g id="Utensils"><path class="cls-4" d="M295.42 275l-4.73-37.82-3.25-50.32a7.06 7.06 0 00-6.6 6.92l-.28 41.85 1.38-.09a2.35 2.35 0 012.47 2l.15 38.13a5.46 5.46 0 1010.86-.71M309.37 237.15a6.49 6.49 0 011.73-4.15 7.46 7.46 0 001.69-4.63l-.24-25.17a.73.73 0 00-1.45 0v16.34a.51.51 0 01-.51.52.52.52 0 01-.51-.53l-.08-16.34a.72.72 0 00-.72-.72.72.72 0 00-.73.71l-.4 16.34a.52.52 0 11-1 0l-.15-16.36a.73.73 0 00-.72-.72.73.73 0 00-.73.71l-.4 16.34a.52.52 0 11-1 0l.33-16.34a.73.73 0 00-1.46 0l-.66 25.16a7.45 7.45 0 001.61 4.66 6.53 6.53 0 011.66 4.16l-2.62 50.37a4.13 4.13 0 108.24.07z"></path><path class="cls-9" d="M297 273.8l-4.61-37.8-3.05-50.33a7 7 0 00-6.62 6.89l-.46 41.85 1.39-.08a2.33 2.33 0 012.32 1.54 2.73 2.73 0 01.14.51v38.12a5.49 5.49 0 00.72 2.74c.07.13.16.26.24.39a.56.56 0 01.05.08 5.67 5.67 0 00.68.79 5 5 0 00.68.54 5.52 5.52 0 00.66.4l.11.05a5.33 5.33 0 002.61.5h.31a5.25 5.25 0 002-.63 5.51 5.51 0 002.61-3.24 5.6 5.6 0 00.22-2.32zM314.07 229.11a7.3 7.3 0 00.07-.94V228l-.68-25.16a.73.73 0 00-.73-.72.72.72 0 00-.72.72v.07l.33 16.27a.52.52 0 01-.51.52.53.53 0 01-.52-.52l-.41-16.34a.72.72 0 00-.73-.71.74.74 0 00-.72.72l-.12 16.35a.52.52 0 01-.5.53.53.53 0 01-.52-.52l-.41-16.34a.73.73 0 00-.73-.71.72.72 0 00-.72.72l-.12 16.35a.52.52 0 01-.51.52.51.51 0 01-.52-.51V202.9a.73.73 0 00-1.45 0l-.23 25.17v.51c0 .14 0 .35.05.52a7.4 7.4 0 001.6 3.68A6.55 6.55 0 01307 237l-1.75 50.41a4.13 4.13 0 108.23-.08l-2.64-50.37a6.48 6.48 0 011.66-4.15 7.53 7.53 0 001.57-3.7z"></path><path class="cls-4" d="M205.63 152.37a5.12 5.12 0 013.87 2.17c1.74 2.5 5.65 4.58 10.38 5.23 6.79.93 12.72-1.41 13.25-5.24s-4.55-7.68-11.34-8.61c-4.74-.65-9.06.29-11.41 2.23a5.12 5.12 0 01-4.31 1l-43.84-9.3a4.15 4.15 0 00-4.95 3.35l-.14.84-.09.85a4.15 4.15 0 003.86 4.56z"></path><path class="cls-9" d="M224.36 144.5l-.6-.07-.67-.11c-4.74-.65-9.06.3-11.41 2.23a5.15 5.15 0 01-4.31 1l-43.84-9.31a4.16 4.16 0 00-4.95 3.36l-.14.83-.09.85a4.14 4.14 0 003.86 4.56l44.73 2.88a5.12 5.12 0 013.86 2.17c1.75 2.5 5.65 4.58 10.39 5.23l.66.07c.2 0 .4.08.6.1 6.09.84 11.46-1.58 12-5.4s-4-7.56-10.09-8.39z"></path></g><g id="Jack"><path class="cls-24" d="M81.9 134.23c.71-.42 11.33-7.7 15.34-10.45a1.92 1.92 0 012.42 3l-17 16.51zm-24.85 65l2.77 33.34L90.57 225l-3.8-19.58S93.3 190 91 176.88c-5.45-12.68-32.74 7.64-32.74 7.64zm36.2-35l4.49-4.17 9.35-.43a2.37 2.37 0 00.13-4.73l-9.72-1-5.7 2.69zm-2.42-10.67l19.22-17.39a2 2 0 00-2.46-3.12l-20.11 13.87z"></path><g id="Hand"><path fill="#eae0cb" fill-rule="evenodd" d="M384.06 119.61l-10.91-4.26-.29 2.68 11.9 7.98-.7-6.4z"></path><path id="Hand-2" data-name="Hand" class="cls-24" d="M395.32 131.85l-2.09-1.11.33-2.35a5.5 5.5 0 00-3.26-5.8l-1.53-.66-.75-6.58-6.47-12.1a4.8 4.8 0 00-1.87 5.78l3.26 8.35-3.41 16.05-2.19-13.43-6.34-10.89-.2.14a4.67 4.67 0 00-1.45 5.74l2.78 5.91-1.13 15.57-4.7 16.63-3.25-2.1-.54-4.24a11 11 0 00-2.44-5.61l-3.21-3.89a4.37 4.37 0 00-6 .5l3.61 6.08s-.07 13 1.21 19.29c1.23 6.1 8.57 12.2 9.12 12.65l-1.59 13.31 27.89 7.57 3.28-47 3.08-13.12a4.22 4.22 0 00-2.14-4.69z"></path></g><path id="Sleeve" class="cls-5" d="M88.79 207.41a.44.44 0 01-.08.32l2.82 17.38L58.5 232l-2.11-20.32a.34.34 0 01-.07-.19c-.18-1.35 7-3.37 15.92-4.51s16.38-.93 16.55.43z"></path><path id="Sleeve-2" data-name="Sleeve" class="cls-5" d="M378.1 176.51c8.32 1.22 15 3.17 15.78 4.53v.08a.39.39 0 010 .21.47.47 0 01-.06.15L392.14 201 359 194.79l2.54-18.22h.05c.16-1.34 7.57-1.38 16.51-.06z"></path><path id="Shirt" d="M355.72 186.85L338 280.7l-23.45 28.11c-16.55.18-37.88 2.81-60.77 7.93-25.15 5.63-47.31 13.17-62.65 20.77l-84.8-47.68L91 219.85a1.85 1.85 0 000-.66 1.91 1.91 0 00-.41-.95v-.19h-.11c-2.13-2.34-10-3.34-19.23-2.25-9.89 1.17-17.76 4.35-18.42 7.32h-.12s8 68.5 11.64 78.58c2.17 6.1 63.15 61.16 63.15 61.16L343.23 364s36.1-69 37.62-74.6c2.83-10.32 12.29-95.82 12.29-95.82z" fill="#41b6ca" fill-rule="evenodd"></path><g id="Head"><path class="cls-27" d="M225.75 282.24c1.77 2.94-2.38 8.67-9.26 12.8s-13.9 5.07-15.66 2.12 2.38-8.67 9.27-12.8 13.9-5.07 15.65-2.12zM254 265.35c1.76 2.95-2.39 8.68-9.27 12.8s-13.89 5.07-15.66 2.13 2.39-8.68 9.27-12.8 13.84-5.08 15.66-2.13z"></path><path class="cls-22" d="M295 315.6L278.45 285a17.31 17.31 0 00-33.45-8.58 17.31 17.31 0 00-28.22 15.23 17.31 17.31 0 00-12.52 32.06l17.07 31.63a40.53 40.53 0 0054.92 16.43l2.32-1.25A40.53 40.53 0 00295 315.6z"></path></g></g></g></g><g id="Above"><path id="Glare" opacity=".3" fill="url(#linear-gradient-2)" fill-rule="evenodd" d="M41.56 121.32L35.21 85h191.58L96.07 171.01l-32.51 11.66-22-61.35z"></path><g id="Phone"><path d="M98.34 179.23L67 190.46a3.43 3.43 0 01-4.39-2.07l-24.28-67.82a3.43 3.43 0 012.07-4.39L71.7 105a3.44 3.44 0 014.39 2l24.32 67.81a3.43 3.43 0 01-2.07 4.39" fill="#1f2f4f" fill-rule="evenodd"></path><path transform="rotate(-19.73 68.806 146.182)" fill="#41b6ca" d="M51.55 113.58h34.54v65.18H51.55z"></path><path fill="#4ec4d3" fill-rule="evenodd" d="M57.94 166.99l25.05-31.6-6.12-17.06-25.05 31.6 6.12 17.06z"></path><path transform="rotate(-19.73 58.939 118.606)" fill="#0e82c5" d="M41.66 115.3H76.2v6.63H41.66z"></path><rect class="cls-33" x="47.51" y="124.94" width="30.83" height="9.04" rx=".68" transform="matrix(.94 -.35 .35 .94 -41.48 30.37)"></rect><rect x="49.99" y="130.92" width="3.83" height="3.86" rx=".82" transform="rotate(-20.57 51.912 132.858)" fill="#f79822"></rect><path class="cls-11" d="M56.14 130.67a.53.53 0 01-.68-.31v-.06a.53.53 0 01.31-.68l6-2.25a.54.54 0 01.68.31v.07a.53.53 0 01-.31.68zM56.85 132.57a.53.53 0 01-.68-.31v-.06a.53.53 0 01.31-.68l18.81-7.06a.53.53 0 01.68.31v.06a.52.52 0 01-.31.68zM57.55 134.44a.53.53 0 01-.68-.31v-.06a.52.52 0 01.31-.68L76 126.33a.53.53 0 01.68.31v.06a.52.52 0 01-.3.68z"></path></g><path id="Hand-3" data-name="Hand" class="cls-24" d="M41.52 147.48a9.66 9.66 0 019.29 7c1.5 5.27 3.54 12.14 4.88 15.6C76 176.85 79 194.77 79 194.77s-5.45 8.44-18 12.2c-12.15-5.67-13.41-30.24-13.41-30.24l-6.09-29.25m56.59 17.41L91.38 172a1.86 1.86 0 002.47 2.77l7.86-5.87a2.72 2.72 0 10-3.6-4"></path></g></g><filter id="blured"><feGaussianBlur stdDeviation="2"></feGaussianBlur></filter><rect id="dshadow" x="31" y="21" width="200" height="64" rx="4" opacity=".15" filter="url(#blured)"></rect><g id="Display"><rect class="cls-33" x="31" y="21" width="200" height="64" rx="4"></rect><g id="TripIt_Icon" data-name="TripIt Icon"><path d="M66 68h-8.11A6.9 6.9 0 0151 61.08V44.89A6.9 6.9 0 0157.89 38h16.19A6.9 6.9 0 0181 44.89v16.19A6.9 6.9 0 0174.08 68z" fill="#f7971c" fill-rule="evenodd"></path><path class="cls-5" d="M63.3 61.77v-.25L60.85 60a4.38 4.38 0 01-2.37.53 5.35 5.35 0 01-3-1A3.39 3.39 0 0154 57a3.85 3.85 0 01.91-2.9 5 5 0 011.92-1.34V50.6l-.26-.17a3.28 3.28 0 01-1.56-2.8 3.34 3.34 0 016.68 0 3.3 3.3 0 01-1.55 2.8l-.26.17v2.16l.33.13.3.14 3.63-2.54v-.24A2.4 2.4 0 1166.66 53a2.69 2.69 0 01-.4 0h-.24l-2.76 2 8.31.11.17-.25A3.51 3.51 0 0173 53.72a4 4 0 011.79-.43 3.79 3.79 0 012.52.93 3.13 3.13 0 010 4.78 3.79 3.79 0 01-2.52.93 3.85 3.85 0 01-1.79-.44 3.34 3.34 0 01-1.29-1.15l-.17-.24-7.25.09.74.55a3.49 3.49 0 012.07.43 2.41 2.41 0 011.33 2.24 2.59 2.59 0 01-5.16.36z"></path><path class="cls-36" d="M74.81 54.36a2.46 2.46 0 00-2.48 1.82l-9.59-.13a4.38 4.38 0 010 .52 4.55 4.55 0 010 .52l9.59-.09a2.45 2.45 0 002.48 1.81 2.23 2.23 0 100-4.41zM65.9 59.91a1.54 1.54 0 00-1 .37l-2.68-1.8a4.24 4.24 0 01-.59.75L64.46 61a1.33 1.33 0 00-.07.45 1.51 1.51 0 101.51-1.49zM58.39 45.38a2.22 2.22 0 00-.42 4.4l-.06 2.85a3.64 3.64 0 01.48 0 3.87 3.87 0 01.48 0l-.06-2.85a2.22 2.22 0 00-.42-4.4zM62 54.48l3.81-2.9a1.27 1.27 0 00.77.25 1.31 1.31 0 10-1.31-1.31 1.16 1.16 0 00.07.42l-4 2.81a4 4 0 01.66.73z"></path><path d="M55 56.57a3.45 3.45 0 113.42 3 3.21 3.21 0 01-3.42-3" fill="#f89820" fill-rule="evenodd"></path></g><path d="M90.52 45.12A4 4 0 0194.71 41a3.63 3.63 0 013.22 1.8l-1.2.61a2.38 2.38 0 00-2-1.16 2.89 2.89 0 000 5.78 2.36 2.36 0 002-1.16l1.2.61a3.64 3.64 0 01-3.22 1.8 4 4 0 01-4.19-4.16zM103 49.11v-3.64c0-.9-.47-1.18-1.18-1.18a1.93 1.93 0 00-1.49.78v4H99v-8h1.26v3a2.76 2.76 0 012-.93A1.65 1.65 0 01104.2 45v4.1zM105.48 46.21a2.92 2.92 0 012.94-3 2.86 2.86 0 012.85 3.15v.3h-4.47a1.75 1.75 0 001.85 1.59 2.44 2.44 0 001.64-.63l.57.83a3.36 3.36 0 01-2.35.84 2.91 2.91 0 01-3.03-3.08zm2.94-2a1.59 1.59 0 00-1.63 1.53h3.26a1.54 1.54 0 00-1.63-1.53zM112.16 46.21a2.91 2.91 0 013-3 2.58 2.58 0 012.22 1l-.83.76a1.54 1.54 0 00-1.33-.68 1.93 1.93 0 000 3.85 1.57 1.57 0 001.33-.68l.83.76a2.58 2.58 0 01-2.22 1 2.92 2.92 0 01-3-3.01zM122.32 49.11l-1.77-2.38-.8.82v1.56h-1.26v-8h1.26v5l2.55-2.79h1.56L121.45 46l2.46 3.16zM124 46.75v-1.08h2.88v1.08zM127.94 41.83a.78.78 0 11.78.78.79.79 0 01-.78-.78zm.16 7.28v-5.79h1.26v5.79zM134.9 49.11v-3.62c0-.9-.46-1.2-1.16-1.2a1.9 1.9 0 00-1.49.78v4H131v-5.75h1.26v.79a2.72 2.72 0 012-.93 1.66 1.66 0 011.9 1.82v4.08zM140.72 41.83a.78.78 0 11.78.78.79.79 0 01-.78-.78zm.16 7.28v-5.79h1.26v5.79zM143.27 48.36l.57-.92a3 3 0 002 .82c.75 0 1.14-.32 1.14-.78s-.61-.61-1.32-.77c-1-.21-2.18-.48-2.18-1.77 0-.95.81-1.76 2.28-1.76A3.3 3.3 0 01148 44l-.53.89a2.31 2.31 0 00-1.71-.7c-.66 0-1.08.3-1.08.71s.57.54 1.26.7c1 .21 2.24.5 2.24 1.87 0 1-.85 1.8-2.41 1.8a3.56 3.56 0 01-2.5-.91zM156.06 49.11v-.62a2.48 2.48 0 01-1.87.77 1.93 1.93 0 01-2-1.92 1.87 1.87 0 012-1.89 2.42 2.42 0 011.87.75v-.87c0-.67-.56-1.08-1.36-1.08a2.33 2.33 0 00-1.7.75l-.52-.88a3.46 3.46 0 012.43-.93c1.29 0 2.42.53 2.42 2.09v3.84zm0-1.32v-.87a1.69 1.69 0 00-1.38-.6 1.05 1.05 0 100 2.07 1.69 1.69 0 001.38-.6zM160.47 49.11l-2.36-5.79h1.34l1.7 4.34 1.69-4.34h1.35l-2.36 5.79zM168.52 49.11v-.62a2.44 2.44 0 01-1.87.77 1.93 1.93 0 01-2-1.92 1.87 1.87 0 012-1.89 2.4 2.4 0 011.87.75v-.87c0-.67-.55-1.08-1.35-1.08a2.37 2.37 0 00-1.72.74l-.51-.88a3.46 3.46 0 012.43-.93c1.29 0 2.41.53 2.41 2.09v3.84zm0-1.32v-.87a1.66 1.66 0 00-1.38-.6 1.05 1.05 0 100 2.07 1.66 1.66 0 001.38-.6zM171.26 41.83a.78.78 0 11.78.78.79.79 0 01-.78-.78zm.16 7.28v-5.79h1.26v5.79zM174.31 49.11v-8h1.26v8zM180.74 49.11v-.62a2.44 2.44 0 01-1.87.77 1.93 1.93 0 01-2-1.92 1.87 1.87 0 012-1.89 2.4 2.4 0 011.87.75v-.87c0-.67-.55-1.08-1.36-1.08a2.34 2.34 0 00-1.71.74l-.52-.88a3.5 3.5 0 012.44-.93c1.28 0 2.41.53 2.41 2.09v3.84zm0-1.32v-.87a1.69 1.69 0 00-1.38-.6 1.05 1.05 0 100 2.07 1.69 1.69 0 001.38-.6zM183.63 49.11v-8h1.26v3a2.3 2.3 0 011.86-.94c1.49 0 2.57 1.17 2.57 3s-1.09 3-2.57 3a2.34 2.34 0 01-1.86-.94v.79zm2.75-1a1.69 1.69 0 001.62-1.89c0-1.13-.63-1.93-1.64-1.93a1.9 1.9 0 00-1.49.79v2.29a1.88 1.88 0 001.51.77zM190.61 49.11v-8h1.25v8zM193.14 46.21a2.92 2.92 0 012.94-3 2.86 2.86 0 012.85 3.15v.3h-4.47a1.74 1.74 0 001.84 1.59 2.45 2.45 0 001.65-.63l.57.83a3.36 3.36 0 01-2.35.84 2.91 2.91 0 01-3.03-3.08zm2.94-2a1.58 1.58 0 00-1.63 1.53h3.26a1.55 1.55 0 00-1.63-1.53zM203.57 49.11v-4.69h-1v-1.1h1V43a1.79 1.79 0 011.83-2 2.12 2.12 0 011 .23l-.28.92a1 1 0 00-.5-.12c-.49 0-.81.33-.81 1v.32H206v1.1h-1.18v4.69zM206.6 46.21a3 3 0 113 3 2.9 2.9 0 01-3-3zm4.66 0a1.69 1.69 0 10-1.68 1.93 1.74 1.74 0 001.68-1.93zM213.84 49.11v-5.79h1.26v.85a2.46 2.46 0 011.88-1v1.24a2.25 2.25 0 00-.4 0 2 2 0 00-1.48.77v3.94zM90.78 64.65a1.33 1.33 0 00.48.1.78.78 0 00.83-.51l.28-.66L90 57.72h1.34L93 62.06l1.7-4.34h1.35l-2.79 6.84a1.94 1.94 0 01-2 1.3 3.43 3.43 0 01-.71-.08zM96.52 60.61a3 3 0 113 3 2.89 2.89 0 01-3-3zm4.65 0a1.69 1.69 0 10-1.68 1.93 1.74 1.74 0 001.68-1.93zM107.66 63.51v-.77a2.77 2.77 0 01-2 .92 1.65 1.65 0 01-1.86-1.84v-4.1h1.2v3.64c0 .9.46 1.18 1.16 1.18a1.92 1.92 0 001.49-.76v-4.06h1.26v5.79zM110.56 63.51v-5.79h1.25v.85a2.5 2.5 0 011.89-1v1.24a2.25 2.25 0 00-.4 0 2 2 0 00-1.49.77v3.94zM118.1 63.51v-4.69h-1v-1.1h1v-.32a1.79 1.79 0 011.84-2 2.18 2.18 0 011 .23l-.28.94a.82.82 0 00-.5-.14c-.5 0-.81.33-.81 1v.32h1.18v1.1h-1.18v4.69zm3.4 0v-8h1.26v8zM124.23 56.23a.79.79 0 01.78-.78A.78.78 0 11125 57a.79.79 0 01-.77-.77zm.16 7.28v-5.79h1.26v5.79zM127.21 65l.59-.91a2.24 2.24 0 001.83.74 1.52 1.52 0 001.72-1.57v-.7a2.34 2.34 0 01-1.86 1c-1.48 0-2.57-1.06-2.57-3s1.08-3 2.57-3a2.31 2.31 0 011.86.94v-.8h1.26v5.49c0 2.09-1.55 2.65-3 2.65a3.26 3.26 0 01-2.4-.84zm4.14-3.37v-2.16a1.89 1.89 0 00-1.49-.78 1.88 1.88 0 000 3.72 1.89 1.89 0 001.49-.78zM138.16 63.51v-3.64c0-.9-.46-1.18-1.17-1.18a1.93 1.93 0 00-1.49.78v4h-1.26v-8h1.26v3a2.76 2.76 0 012.05-.93 1.65 1.65 0 011.87 1.83v4.1zM141.31 62.17v-3.35h-1v-1.1h1v-1.58h1.26v1.58h1.18v1.1h-1.18v3c0 .39.19.68.55.68a.88.88 0 00.57-.2l.3.94a1.65 1.65 0 01-1.19.38 1.34 1.34 0 01-1.49-1.45z"></path></g></g></svg> 